<?xml version="1.0" encoding="UTF-8"?>
<svg xmlns="http://www.w3.org/2000/svg" id="Layer_2" data-name="Layer 2" viewBox="0 0 552.26 565.18">
  <defs>
    <style>
      .cls-1 {
        fill: #f06026;
      }

      .cls-2 {
        fill: #fff;
      }

      .cls-3 {
        fill: #231f20;
      }
    </style>
  </defs>
  <g id="Layer_2-2" data-name="Layer 2">
    <path class="cls-3" d="m32.71,435.75c.12.55.25,1.1.42,1.89-.47.23-1.04.5-1.69.81.56.26,1.09.52,1.61.76,1.28-1.7,1.27-2.23-.34-3.47h0Z"></path>
    <path class="cls-3" d="m27.34,428.9c-.15.13-.29.26-.44.39.59.53,1.18,1.06,1.93,1.73.2-.22.65-.68.63-.7-.68-.5-1.4-.96-2.12-1.43h0Z"></path>
    <path class="cls-3" d="m30.55,436.75c.06-.19.12-.38.19-.57-.63-.23-1.26-.46-1.89-.68.59.38.68,1.68,1.7,1.25Z"></path>
    <path class="cls-3" d="m40.7,438.73c.11-.02.21-.04.32-.06-.21-.41-.3-.96-.67-1.19-.32-.2-.96-.04-1.45-.04,0,.12,0,.24.02.36.6.31,1.19.62,1.79.93h-.01Z"></path>
    <path class="cls-3" d="m39.57,445.78c-.93.13-1.86.27-2.79.4h-.07c-.11.46-.21.91-.32,1.36.13.07.27.14.4.21,1.02-.46,2.03-.93,3.05-1.39-.09-.19-.18-.39-.27-.58h0Z"></path>
    <path class="cls-3" d="m67.1,483.33c-.08.35.3.8.61,1.5.37-.83.59-1.34.81-1.84-.1-.09-.2-.19-.3-.28-.39.2-1.05.35-1.11.62h0Z"></path>
    <path class="cls-3" d="m57.25,470.2c1.92.84,3.48.73,3.83-.33-1.28.06-2.64-.92-3.83.33Z"></path>
    <path class="cls-3" d="m55.52,466.26c-1.53-.72-2.56-.28-4.1.24.68.37,1.12.61,1.57.85-.02,1.22,1.31,2.67,2.72,3.01.34-.72.71-1.42,1-2.15.53-1.33.31-1.24-1.2-1.95h0Zm-2.52,1.07c-.06-.21-.12-.42-.24-.81,1.16.3,2.11.54,3.41.87-1.38.6-2.29.61-3.17-.06Z"></path>
    <path class="cls-2" d="m54.21,459.09c-1.72-1.81-3.4-3.64-5.03-5.49-4.8-.32-9.63-.47-14.68-.47-.94,0-1.84,0-2.72.02,2.89,3.59,5.91,7.11,9.1,10.54l.33-.15c3.35-1.49,7.7-3.1,13.01-4.44h0Zm1.59,2.51c.2.06.4.13.6.19-.11.38-.21.77-.32,1.15-.29-.09-.58-.18-.87-.26.19-.36.39-.72.58-1.08h0Zm-15.7-3.32c.54.05,1.11.09,2.07.17-.65.6-1.09,1.01-1.62,1.5-.19-.68-.3-1.12-.46-1.67h0Z"></path>
    <path class="cls-3" d="m20.94,423.66c-.13-.01-.25-.03-.38-.04.14.31.27.62.41.93-.01-.32-.03-.61-.04-.88h.01Z"></path>
    <path class="cls-3" d="m95.03,516.16v.04s0-.02-.01-.03c-.09,0-.15.02-.23.03.18.14.36.27.54.4-.09-.14-.18-.28-.28-.41,0,0-.01,0-.02.01v-.04h0Z"></path>
    <path class="cls-2" d="m551.83,294.05c-1.11-28.76-1.58-45.63-1.79-55.88-.27-12.94-.36-17.36-.58-28.12-.1-4.69-.19-9.37-.29-14.06-.07-3.41-1.37-9.02.18-12.17.3-.62,1.14-3.95,1.14-4.72,0,0,.04-1.49-.67-3.17-1.87-4.43-8.45-5.48-8.78-5.53-.34-.96-1.34-3.34-3.87-5.02-2.16-1.43-4.3-1.59-5.73-1.7-2.21-.17-4.43.24-7.05,1.16-.27-1.36-.39-2.79-1.01-4.09-.98-2.04-2.92-2.73-3.53-3-3.34-1.47-6.56-.14-7.14.11-.17-.77-.6-2.17-1.85-3.21-.72-.6-1.45-.84-2.13-1.06-2.62-.87-5.36-1.46-8.22-1.11-3.28.39-6.21,1.57-8.69,3.44-.7.53-1.28,1.16-1.98,1.8-.52.02-1.25.06-2.12.16-1.13.14-3.32.41-5.65,1.34-1.6.64-4.7,1.88-6.73,4.97-.89,1.35-1.3,2.64-1.51,3.5-.83.13-2.31.46-3.83,1.47-1.83,1.21-2.74,2.74-3.13,3.5-.62.02-1.52.12-2.54.47-2.12.73-3.36,2.06-4,2.76-.95,1.04-1.65,2.25-2.15,3.59-.63,1.71-.69,3.41.26,5.05.31.54.46,1.17.87,1.64,1.68,1.94,1.17,4.06.83,6.18-3.62,1.58-7.54,2.48-10.79,4.47-2.17,1.33-4.31,2.71-6.48,4.12.58-4.31.79-12.07-3.19-20.4-4.11-8.63-13.68-14.74-20.83-16.78-2.71-.77-6.46-1.37-8.93.16-4.76,2.94-3.92,12.94-2.33,25.71.16,1.29.32,2.53.45,3.68.54,4.77-1.33,6.94-4.43,10.52-2.39,2.76-5.37,6.21-8.06,11.91-5.46,11.58-1.6,20.14-.13,22.72-5,12.45-15.56,19.33-17.67,20.61-6.61.21-16.2,6.48-19.56,8.82-3-2.69-6.29-5.14-8.3-6.57,1.59-1.46,2.42-2.97,2.52-4.58.24-3.84-3.61-7.17-8.95-11.79l-2.04-1.77c-6.53-5.72-7.87-12.03-8.14-14.18,6.55-5.31,11.42-11.46,11.63-11.73l2.15-2.73h-3.53c-8.95,0-15.82-3.88-17.4-4.85-4.35-8.56-3.85-21.16-3.49-25.8,4.43.67,8.1.36,11.67.05,5.38-.46,10.45-.9,17.61,2.44,10.86,5.06,12.52,16.59,12.54,16.71l.4,2.96,2.41-1.85c.18-.14,18.33-14.48,6.19-42.49-11.1-25.6-27.53-26.76-30.83-26.78l-6.2-3.29c1.42-3.72,4.38-13.83-.15-25.02-3.22-7.97-8.49-12.19-12.53-14.36,1.77-.31,3.9-.65,6.26-.93,5.73-.69,10.53,1.09,14.4,2.51,4.02,1.48,7.49,2.76,10.26.49,1.7-1.39,2.38-3.94,1.93-7.19-.9-6.49-6.03-14.94-14.09-18.55-9.27-4.14-18.45-5.33-24.32-5.61,14.86-7.92,26.6-5.95,34.64-4.6,5.21.87,8.97,1.5,11.31-1.04,1.02-1.11,2-3.14.94-6.51-2.81-8.9-17.95-21.32-40.46-26.8-17.97-4.38-32.69-2.24-41.61.18,5.65-3.85,11.23-6.02,15.34-7.62,5.03-1.96,8.66-3.37,7.77-6.62-.71-2.58-7.03-6.04-14.71-8.05-11.2-2.92-40.51-6.56-70.75,22.8-38.1,37.07-25.21,72.04-22.88,77.43-7.07,18-.2,31.64,3.54,37.19-4.82.49-8.58,2.37-11.2,5.62-4.41,5.46-5.18,14.42-2.16,25.23,3.94,14.11,16.45,21,19.02,22.29.63,1,2.64,4.88,1.64,12.02-1.19,8.52-12.67,20.76-18.55,25.42-2.62,2.08-4.05,4.27-4.24,6.51-.08.89.06,1.65.26,2.27-10.86,7-21.92,17.02-31.73,25.91-6.91,6.26-13.44,12.17-18.93,16.16-13.27,9.63-22.88,12.42-22.98,12.45l-3.38.96,2.83,2.04c2.62,1.89,5.7,2.3,8.28,2.17-9.61,8.78-20.88,10.46-21.01,10.48l-4.44.63,3.71,2.46c2.48,1.64,5.03,2.31,7.2,2.52-4.72,3.82-12.78,10.04-19.25,13.46-8.02,4.24-9.82,11.37-10.2,15.01-2.54-.43-7.25-.73-14.97.5-7.41,1.18-12.8,4.43-14.42,8.7-.79,2.07-.52,4.08.73,5.52,1.72,1.98,5.36,3.16,10.87,4.94,3.48,1.13,7.81,2.53,12.45,4.44,11.3,4.66,19.18,11.46,23.8,16.34,2.12,2.24,5.15,6.04,7.91,9.63-14.88-9.14-36.72-16.77-48.35-16.07-10.67.63-20.61,4.96-23.64,10.27-1.09,1.92-1.17,3.9-.23,5.59,1.65,2.95,5.3,4.16,11.34,6.17,6.28,2.09,15.78,5.24,28.33,12.3,12.06,6.78,20.92,13.44,26.66,18.28-23.23-9.07-52.43-8.44-67.08-3.76l.05.02c-4.36,1.39-7.52,3.25-9.82,5.21.53,1.06,1.07,2.12,1.62,3.17,2.04,3.94,4.19,7.83,6.45,11.64.67,1.12,1.35,2.24,2.04,3.35,7.88-.15,18.69-.05,32.44,2.18,11.98,1.94,22.61,5.4,30.55,8.53-24.25-3.69-41.11,2.49-50.42,7.71.69.91,1.37,1.82,2.07,2.72,3.64,4.7,7.47,9.25,11.45,13.67h-.01c.75.83,1.51,1.67,2.27,2.49.96,1.03,1.93,2.05,2.9,3.06,9.53-1.15,21.09-1.81,34.72-1.05,36.14,2.01,47.21,12.09,49.12,14.16.04,1.49.5,5.09,3.17,12.09,2.75,7.19,6.41,11.71,8.06,13.52-.87,2.1-2.39,7.17-2.72,17.21-.05,1.61.03,3.1.21,4.48,1.25.46,2.5.91,3.76,1.35,16.47,5.75,33.75,9.83,51.63,12.01,1.17.15,2.36.27,3.54.4,1.92-5.83,2.35-11.8,2.43-15.08,5.51,1.85,10.14,2.14,12.74,2.1-.61,6.5.3,11.07,1.59,14.22,1.3.05,2.6.11,3.91.14,2.13.05,4.27.08,6.41.08,10.47,0,20.78-.64,30.9-1.89.98-1.09,1.83-2.23,2.6-3.38h.01c-.77,1.15-1.63,2.28-2.6,3.37,1.63-.2,3.26-.43,4.89-.66,4.54-6.37,6.83-14.23,6.6-23.14-.18-6.98-1.8-12.58-2.49-14.66,14.59-19.84,26.91-32.24,37.8-43.19,15.92-16.01,29.66-29.84,43.23-60.31,15.68-35.21,16.13-56.84,14.78-67.16,1.59,2.95,2.26,5.79,2.26,5.79l1.04,4.53,2.2-4.12c3.03-5.65,2.46-11.75,2.01-14.35,3.63-2.22,5.91-5.26,7.34-8.05v.18l.08,3.14,2.65-1.79c2.57-1.73,4.22-4.95,5.28-8.22,0,.12-.02.23-.02.33l-.31,3.91,3.14-2.46c6.23-4.87,6.66-14.53,6.63-17.59,12.82-9.42,17.26-19.12,18.53-22.62,3.54.07,13.19-.2,21.96-4.47.76-.37,1.47-.76,2.13-1.17,2.46,1.89,5.1,2.7,6.48,3.11,3.86,1.15,7.29.93,9.52.56.02,3.92.12,6.83.18,8.06.02.45.07,1.28.6,2.09.34.53.75.84,1.08,1.08.48.36,1.4.93,2.79,1.2,1.66.5,3.93,1.16,6.65,1.83,9.27,2.3,16.6,3.04,19,3.25,4.44.4,10.16.23,21.59-.11,0,0,6.58-.19,23.1-2.48,3.8-.53,7.64-1.12,9.64-4.1,1.77-2.63,1.26-5.88.81-7.64Zm-392.93,231.99s-.12-.13-.12-.13c.04.04.08.09.12.13Zm123.4-262.29c1.3-2.33,1.73-4.89,1.86-7.37-.12,2.47-.56,5.04-1.86,7.37Zm1.89-8.96c0-.53-.02-1.05-.05-1.58-.06-1.05-.17-2.09-.33-3.13.16,1.03.27,2.08.33,3.13.03.52.05,1.05.05,1.58Zm36.64-149.34s.08.14.08.14c-.03-.04-.05-.09-.08-.14Zm.35,28.85c.25-.95.47-1.88.67-2.79-.19.91-.41,1.84-.67,2.79Zm88.77,37.45c-.09,1.01-.12,2.13-.11,3.31-.02-1.18.02-2.29.11-3.31Zm52.24,42.84c.38-.98.8-2.06,1.04-3.21.12,3.38.25,6.76.37,10.13-.71-.68-1.35-1.33-1.84-2.01-.91-1.27-.46-2.63.43-4.92Zm4.32,62.73c-1.1,1.46-4.53,1.24-6.85-.11-.48-.28-.92-.62-1.35-.99,1.05-4.57.69-9.82.06-15.42-.63-5.6,1.43-7.67,4.28-10.54.82-.83,1.68-1.7,2.52-2.68.42,6.48.68,10.15.88,13.82.3,5.51.47,10.04.58,13.1.56,1.72.11,2.52-.12,2.82Zm31.21-84.16c-.11.06-.23.13-.34.19.11-.06.22-.13.32-.2.01,0,.03,0,.03,0h-.01Zm42.69-9.3c-5.09,2.3-7.3,2.75-12.8-.58-.57.87.03,2.17,1.8,3.91-3.87,2.31-10.47,3.09-14.32.58-.42.3-1.03.72-1.81,1.18-1.64.96-3.03,1.77-4.87,2.03-.83.11-2.77.39-4.76-.68-2-1.07-2.83-2.83-3.08-3.43-.5.7-1.27,1.62-2.37,2.53-1.99,1.64-3.94,2.29-5.15,2.68-3.07.99-5.83,1-7.7.83-3.01-.49-6.34-3.08-6.65-6.05-.99.27-1.84.36-2.44.39-1.15.06-1.86.09-2.55-.34-.66-.41-.95-1.02-1.16-1.47-.5-1.06-.46-2.07-.39-2.64-.26.23-.65.53-1.16.81-.88.48-1.66.63-2.04.7-1.94.36-5.06.95-6.36-.76-1.31-1.73-.35-5.25,2.06-6.35,1.33-.61,2.68-.29,3.23-.13.06-.52.48-3.84,3.27-5.52.53-.31,1.84-1.1,3.59-.89,1.34.16,2.26.82,2.67,1.15-.54-9.62,12.81-13.83,18.65-6.82-1.26.99-2.82,1.81-3.42,3.52,2.62-1.35,4.88-1.81,6.31-1.99,2.05-.26,3.13-.04,3.54.06,1.76.42,2.96,1.35,3.6,1.92-.3-.64-.6-1.29-.9-1.93-1.03-2.1-4.04-1.94-6.12-2.77-1.05-1.51-2.91-3.06-5.56-4.65,4.47-5.22,12.12-4.57,16.66.28-.42.31-1.21.96-1.76,2.07-.6,1.2-.61,2.3-.58,2.82,2-3.59,5.4-5.7,8.59-5.31.57.07,2.44.38,3.83,1.92,1.78,1.96,2.03,5.08.63,7.94.36.07.63.17.69.12,2.15-2.07,5.21-2.6,8.13-3.15,3.08-.18,7.96,1.83,7.97,5.18-.12.31-.41.91-1.05,1.43-.86.69-1.79.78-2.12.8,3.05.73,6.95-1.62,9.36,1.34v.02c4.18,3.18,2.75,11.74-3.46,9.25Z"></path>
    <g>
      <path class="cls-1" d="m338.32,477.3c-.68.45-.87,2.15-.44,2.73.66-.97,1.27-1.86,2.08-3.04-.59.09-1.2.02-1.64.31Z"></path>
      <path class="cls-1" d="m342.86,482.49c-.24-.82-.49-1.65-.73-2.47.13-.17.27-.34.4-.51-.74-.07-1.62-.44-2.19-.1-.43.26-.53,1.43-.68,2.21h-.01c-.09.42.08.89.02,1.33-.17,1.24-.3,2.31,1.29,1.14.13-.09.4.12.61.15.53.07,1.07.12,1.64-.03.44.16.89.33,1.33.5-.07-.41-.14-.81-.21-1.22v-.03c-.01-.41-.01-.82-.01-1.23.01-.3.03-.59.03-.89-.28.16-.58.29-.83.49-.12.1-.17.34-.66.66Z"></path>
      <path class="cls-1" d="m151.48,153.15c.16.26.45.44,1.01.45.79.01,1.18-.54.88-1.31-.22-.54-.57-1.04-.86-1.55-.73-.15-1.23-.11-1.21.89v.31c.16.04.31.07.47.11-.1.37-.19.73-.29,1.1Z"></path>
      <path class="cls-2" d="m488.15,325.08c-.47-1.07-.75-1.88-.75-2.68.01-.55.3-1.23.7-1.61.13-.11.34-.15.57-.15-.02-.61-.04-1.23-.06-1.84-4.99-.77-9.71-2.06-14.18-4.1.28,4.5.44,9.03.44,13.59,0,1.09-.06,2.18-.08,3.27.2.29.54.38,1.02.31.68-.1,1.35-.24,2.01-.36.06,1.23-.12,1.45-1.62,1.79-.11.49-.21.96-.31,1.4-.42-.33-.79-.62-1.14-.89-.06,2.39-.14,4.78-.28,7.16.19-.01.37-.03.58-.04-.11,1.07-.24,2.38-.37,3.7.03.04.07.07.09.11,0,.03-.03.05-.03.07-.03-.02-.05-.04-.07-.05.01-.05.01-.09.01-.13-.11-.14-.26-.25-.44-.33-.54,7.43-1.43,14.75-2.7,21.96.88.3,1.12.89.78,1.76-.29-.3-.61-.62-.92-.93-.21,1.17-.45,2.34-.68,3.51.23-.19.42-.39.48-.65.92.8,1.58,1.61.86,2.56-.23.31-1.42.39-1.76.12-.18.82-.34,1.65-.52,2.47,0,.1.05.19.03.29-.13.8-.67,1.71.52,2.29.08.04-.01.84-.23.98-.42.27-.86.51-1.31.74-.1.45-.23.89-.34,1.34.24-.07.51-.14.86-.22-.17.59-.21,1.11-.47,1.49-.15.23-.51.33-.83.45-.75,2.95-1.56,5.88-2.44,8.78.87-.44,1.81-.75,2.72-1.12-.22.66-.72,1.02-.86,1.48-.3.98-.73,1.38-1.81.59-.07.11-.15.22-.22.33.16.64.16,1.39.53,1.89.95,1.3.66,2.52-.95,2.71-.41.05-.83.05-1.25.05-5.61,16.89-13.27,32.89-22.63,47.77.02.03.06.04.09.08.19.25.13.66.19.99-.3.04-.62.16-.89.1-.03-.01-.07-.03-.1-.03-.55.87-1.08,1.76-1.65,2.62.2-.13.43-.25.57-.36.42.72.65,1.19.96,1.6.03.05.58-.16.77-.36.97-1.05,1.24-1.05,2.28.28-1.39-.63-1.76.1-1.91,1.1-.04.35-.03.7-.04,1.06.01.01.03.02.03.02v.04c.73.33,1.46.66,2.4,1.08-.09-.45-.16-.84-.24-1.24.09-.04.17-.07.26-.11.65,1.36,1.31,2.72,2.07,4.31.53-.4,1.12-.85,2-1.51.08.73.17,1.41.22,2.1.04.67.04,1.33.07,2.28-.48-.73-.74-1.62-1.26-1.81-.59-.21-1.42.21-2.4.4-.7-.15.99-1.63-.42-1.49-.64.06-1.2.87-1.98,1.49-.07-.8-.11-1.54-.21-2.28-.15-1.07-.34-2.14-.52-3.21-.02,0-.03-.02-.04-.02v-.04c-.66-.35-1.32-.71-2.04-1.09-.19.47-.3.73-.4.99-.15,0-.3.02-.45.02-.07-.87-.21-1.75-.16-2.61-33.3,50.3-86.69,86.88-149.05,98.9-.91,5.33-2.7,10.31-5.32,14.77,86.64-13.77,158.09-71.99,188.76-149.73-.96-.92-1.79-1.69-2.57-2.48-.13-.13-.21-.42-.17-.6.32-1.37,1.39-1.92,2.83-1.57.3.07.68-.14,1.03-.22-.43-.84.4-.74.7-.7.09.01.19.04.28.07,4.64-12.68,8.19-25.86,10.56-39.42-.58-.41-1.22-.85-2-1.4.76-.28,1.26-.66,1.66-.58.26.05.46.15.65.26.17-1.05.33-2.1.49-3.15-.52.06-1.08.13-1.98.25.45-1.21.78-2.1,1.12-3,.18.03.37.05.55.07.35.59.43,1.24.43,1.9.41-2.76.78-5.53,1.09-8.32-.22-.28-.43-.55-.66-.85.05-.05.21-.21.43-.44-1.39-.38-1.79-1.2-1.37-2.45.6-.24,1.12-.45,1.46-.58.23.02.41.11.58.23.2-2.13.37-4.28.51-6.43-.05-.02-.11-.04-.16-.06-.52-.21-.98-.57-1.54-.91.45-.44,1.1-1.06,1.86-1.8.01-.22.03-.44.04-.66-1.08-.29-2.03-.55-3.03-.82.02-.11.09-.45.19-1-2.35,1.36-4.19.57-5.78-.9-.47-.43-.79-1.36-.67-1.95.15-.74,1-.95,1.85-.82.63.1,1.27.07,2.04.1-.23-1.1-.42-2.01-.65-3.15.57.27.87.42,1.26.6.16-.54.29-.96.42-1.38-.27.2-.53.39-.8.59-.58-.65-1.17-1.29-1.75-1.94.17-.2.34-.41.51-.62-.33.4-.66.8-.8.97-.65-.46-1.26-.89-1.88-1.32h-.02c.1.44.22.87.3,1.31.08.48.14.97.21,1.45.01,0,.02.02.02.02h-.02c-.16.77-.3,1.55-.5,2.31-.07.27-.27.53-.47.74-.04.04-.46-.15-.55-.31-.45-.83.48-2.49,1.51-2.74h0v-.03c-.62-.89-1.25-1.78-1.87-2.67.08-.1.17-.21.25-.31.37.08.73.15,1.1.22v-.03s.03.02.04.02c.27-.27.54-.55.82-.83-2.34-1.18-.77-3.38-1.98-4.74.13-.06.27-.12.4-.18.45.59.9,1.17,1.32,1.73.21-.32.38-.59.52-.81.37.49.84.86.99,1.32.32,1.03,2.4,1.3,1.21,2.88,1.27.37,2.41.7,3.79,1.1-.66.83-1.21,1.55-1.79,2.25-.51.62-.5,1.05.04,1.79.72.99,1.04,2.26,1.54,3.41l-.38.19c-.6-.71-1.19-1.42-1.93-2.31-.23.93-.38,1.57-.59,2.42,1.33-.74,1.59-.09,1.52.73,1.27.54,2.47,1.04,3.67,1.55.03-.7.04-1.4.07-2.09-.23-.01-.45-.06-.52-.16-.27-.38-.45-.95-.37-1.4.1-.58.48-1.11.65-1.47.12-.04.23-.07.35-.11.04-1.92.07-3.83.07-5.76,0-1.36-.03-2.71-.05-4.06-.22.3-.42.58-.61.85Zm-47.38,137.04v.02c-.9-.04-1.62-.07-2.24-.1.21-.61.32-1.18.6-1.67.2-.35.63-.57.95-.84.25.32.64.61.72.96.11.51-.01,1.06-.03,1.63Zm2.9-18.25c-.2.03-.45-.01-.6-.12-.09-.07-.12-.41-.04-.48h.01c.14-.14.4-.22.59-.2.46.06.9.19,1.73.38-.82.21-1.25.35-1.69.42Zm2.01-3.05c-.17.49-.11,1.06-.13,1.6-.26-.04-.51-.07-.76-.11.14-.67.14-1.42.49-1.96.18-.27,1.02-.29,1.5-.17h.01c.26.07.4.65.42.69-.67-.03-1.49-.17-1.53-.05Zm2.22,12.83c-.06-.08-.12-.16-.19-.24.23-.29.45-.57.72-.91-.38-.32-.69-.59-1-.85.04-.13.09-.27.13-.4h0c.77.34,1.55.68,2.7,1.17-1.04.54-1.7.89-2.36,1.23Zm2.57-5.86c-.28-1.08-.49-1.9-.75-2.92,1.3.79,1.55,1.76.75,2.92Zm1.72-13.52c.53-1.29-1.6-2.2-.71-3.55.27-.04.53-.08.8-.12.18,1.2.37,2.39.55,3.59-.21.03-.43.05-.64.08Zm1.54-8.53h.01c-.12-.09.14-.88.43-1.11,1.1-.9,1.75.16,2.65.68-1.09.69-2.05,1.28-3.09.43Zm4.01,3.17c-.51-.23-1.28-.34-1.45-.71h.01c-.18-.37.25-.99.53-1.9.54,1,.88,1.63,1.22,2.26-.1.12-.21.23-.31.35Zm1.75-5.07c-.6-.56-1.16-1.08-1.71-1.6.1-.12.21-.23.31-.35.84-.05,1.68-.09,2.68-.15h.01c.56,1.03-.26,1.6-1.29,2.1Zm4.28-19.31c-.18.21-.58.25-.74.31-.1.54-.19.97-.27,1.41l-.39-.09h0c-.49-1.45-.42-1.69.8-2.41.23-.14.57-.1.85-.14-.07.31-.06.7-.25.92Zm1.57,20.75c.4-1.77.93-2.18,2.6-1.86-.84.85-1.1,2.11-2.6,1.86Zm17.09-43.36c-.15-.03-.3-.06-.45-.09.17-1.07.33-2.14.5-3.21.21.04.42.08.63.12-.23,1.06-.45,2.12-.68,3.18Zm2.14-10.6c-.54,2.45-1.92,4.6-2.69,4.25.01-.23.03-.49.03-.64-.54-.23-1.03-.44-1.52-.65.38-.41.73-.85,1.15-1.22.55-.49,1.12-.96,1.74-1.36.33-.21.78-.24,1.29-.38Zm-.94-18.41c.34.9.73,1.78.95,2.71.03.14-.77.46-1.1.64h0c-.13-1.25-.23-2.24-.33-3.23.16-.04.32-.08.48-.12Zm-1.28,8.35c.36,1.35.05,2.14-.94,2.37.35-.89.64-1.63.94-2.37Zm-1.18-5.26c-.17.7-.34,1.43-.56,2.36-.75-1.69-.6-2.14.56-2.36Zm-6.42-11.17c.76.59,1.51,1.18,2.04,1.59.23.81.38,1.38.57,2.06-.74-.06-1.65.71-1.95-.72-.11-.54-.49-1.04-.75-1.56-.14.05-.27.09-.41.14.17-.5.33-1.01.5-1.51Zm-4.34,47.73h0s.49-.02.75-.04c-.02.47-.04.94-.06,1.41-.22,0-.44.02-.66.02-.02-.47-.06-.93-.03-1.39Zm2.81,8h0c-1.05.15-1.93-.51-2.83-1.02.97.21,1.94.42,2.92.63-.03.13-.06.26-.09.39Zm.02-7.65c-.1-.1-.2-.21-.3-.31.22-.52.45-1.04.74-1.71.37.12.71.23,1.43.46h.01c-.78.64-1.33,1.1-1.88,1.56Zm3.57,8c-.18.35-.41.67-.7,1.13h0c-1.2-.12-.51-1.11-.52-1.77,0-.14.48-.39.76-.42.21-.02.56.18.65.37.08.17-.08.48-.19.69Zm.09-13.97c-1.49.13-3.22.01-4.42-1.14-.31-.3-.09-1.12-.11-1.7.28.24.62.45.84.74,1.09,1.46,2.57,1.55,3.84.23.4.69.98,1.77-.15,1.87Zm.15-1.88v-.02h.02s-.01.01-.02.02Zm.83-2.49c-.18.42-.48.8-.63,1.23-.14.39-.15.82-.21,1.24-.87-.02-.8-.38-.52-1.06.19-.47.01-1.08,0-1.85.73-.32.91-2.09,2.37-2.11-.38.96-.67,1.76-1.01,2.55Zm1.57-5.67c-.12.1-.24.21-.36.31h-.01s-.09-.05-.14-.07c.03.75-.21,1.39-.71,1.81-.6-.17-1.24-.58-1.68-.44-.43.14-.8.81-.95,1.32-.26.88-.33,1.82-.53,3.1-1.18-.89-1.99-1.51-2.8-2.12.05-.07.11-.14.17-.21-.4,0-.79-.03-1.26-.05.49-.84.89-1.54,1.47-2.55,1.01-.05,2.5-.12,4.24-.2-.41-.68-.76-1.02-.79-1.39-.04-.55-.05-1.45.26-1.61.62-.33,1.4-.5,1.99.48.09.14.11.27.18.4h.08c.36.08.56.79.84,1.22Zm-.77-25.97c.13.04.27.09.4.13-.09.62-.17,1.24-.28,2.04-.69-.52-1.03-.79-1.2-.92.31-.37.69-.81,1.07-1.25h.01Zm-.51-7.33c.82,1.71.53,2.08-1.31,1.94.44-.64.8-1.18,1.31-1.94Zm5.04-20.49c-.61-.46-1.23-.91-1.79-1.42-.04-.03.4-.56.62-.87.6.73,1.07,1.3,1.54,1.87-.12.14-.25.28-.37.42Zm.76-3.25c-.11.26-1.16.41-1.58.21-.76-.36-1.4-.98-2.01-1.57h-.01c-.17-.19-.06-.64-.08-.96.09-.01.18-.02.27-.03.1.24.2.47.34.81.42-.24.7-.4.88-.5.5.7.92,1.29,1.34,1.88.1-.07.21-.14.31-.21-.04-.43-.08-.87-.12-1.3.17-.02.34-.05.51-.07.08.59.36,1.27.15,1.74Z"></path>
      <path class="cls-3" d="m190.75,218.7c-.41.64-.78,1.2-1.13,1.73.44-.42.88-.86,1.33-1.31-.07-.14-.13-.27-.2-.42Z"></path>
      <path class="cls-1" d="m80.24,322.88c-.19-.58-.54-.78-1.45.18-.11.11-.44-.02-.67,0-.57.05-1.14.13-1.68.38-.51-.06-1.01-.11-1.51-.16.19.35.37.69.56,1.03.01.01.01.03.01.03.12.36.24.72.35,1.08.08.26.15.53.22.79.24-.19.51-.37.71-.6.1-.12.09-.34.5-.73.07.1.14.19.21.29.86-.82,1.78-1.58,2.76-2.29Z"></path>
      <path class="cls-1" d="m385.57,184.35c.01-.1.71-.1,1.09-.13.41-.03.84-.04,1.52-.06-.58-.88-1.08-1.62-1.42-2.14-.6-.11-1.04-.16-1.41-.24-.05,1.16-.18,2.28-.38,3.36.32-.16.56-.39.6-.79Z"></path>
      <path class="cls-3" d="m44.96,190.99c-.41.56-.82,1.12-1.23,1.69.71-.35,1.13-.94,1.23-1.69Z"></path>
      <path class="cls-1" d="m63.15,414.6c-7.37-3.86-13.52-6.28-18.39-7.99,1.13,2.72,2.32,5.41,3.57,8.07,2.6-.16,5.28-.25,8.01-.25,2.28,0,4.55.06,6.81.17Z"></path>
      <path class="cls-3" d="m90.17,158.83c.74.65,1.35.52,1.87-.29-1.01-1.02-1.37-.96-1.87.29Z"></path>
      <path class="cls-1" d="m138.78,505.42c-2.58-1.88-8.76-5.41-21.17-7.94,7.25,5.15,14.84,9.88,22.74,14.13-.72-2.29-1.25-4.36-1.57-6.19Z"></path>
      <path class="cls-3" d="m152.74,138.81c.12-.01.24-.01.35-.03.41-.09.8-.3,1.2-.46h0s.04-.01.04-.01h0c.06-.1.13-.21.2-.32-.6.26-1.19.55-1.78.82Z"></path>
      <path class="cls-3" d="m391.44,155.82c.31.25.63.5.94.75.14-.26.27-.51.41-.78-.62,0-1.04.07-1.35.03Z"></path>
      <path class="cls-1" d="m357.93,203.32c-.1-.57-1.55-8.03-8.46-11.25-3.93-1.83-6.77-2.08-9.02-2.08-1.56,0-3.19.14-4.91.29-1.62.14-3.39.29-5.31.35.09,4.1.58,9.06,2.09,13.08,2.38,1.15,6.67,2.8,11.81,2.8h10.09c-.08-.19-.14-.38-.18-.59-.05-.26.51-.63.89-.77h.01c1.6-.57,1.78.53,2.14,1.36h1.28l-.43-3.19Zm-4.16.54c-.2-.26-.44-.56-.4-.5-1.05-.06-1.91.12-2.5-.21-.53-.3-.77-1.16-1.13-1.78.53-.13,1.07-.27,1.6-.4v-.02h.03c-.36-.56-1.6-1.02-.58-1.74.28-.2,1.01-.27,1.16-.11.39.41.58.99.87,1.55-.64.13-1.04.21-1.44.29,0,.01.02.02.02.02-.01.01-.03.01-.04.01.17.63.33,1.25.51,1.91.11-.09.24-.31.44-.34.39-.06.9-.15,1.22.03h-.01c.96.55,1.12,1.38.25,1.29Z"></path>
      <path class="cls-3" d="m418.5,315.89c-.03-.05-.06-.11-.09-.16-.15.14-.31.27-.46.41.19-.08.37-.16.55-.24Z"></path>
      <path class="cls-1" d="m34.95,372.39c-.65-.88.11-3.46,1.05-4.25.04.48-.09,1.15.15,1.32,1.34.98.83,1.91-.11,2.94.65-.05,1.1-.08,1.57-.12.12-.34.23-.67.22-.63,1.25-.17,2.26-.3,3.54-.47.03.04.08.1.11.15,4.24-1.35,8.73-2.15,12.89-2.39.63-.04,1.29-.06,1.97-.06.41,0,.82,0,1.24.02-.22-.07-.82-.27-.82-.27-2.43-.78-4.6-1.49-6.52-2.25-.06.19-.17.3-.35.24-.09-.17-.19-.34-.28-.51-.59-.24-1.16-.5-1.7-.76-.24.13-.46.25-.76.41.11-.25.24-.44.37-.61-1.91-.97-3.53-2.09-4.84-3.6-3.01-3.46-3.76-8.25-2.02-12.81,1.89-4.97,6.3-8.88,12.5-11.26.02-.62.04-1.24.06-1.85.15-.06.31-.12.47-.18.21.53.43,1.07.65,1.61,1.96-.67,4.08-1.2,6.34-1.56,3.84-.61,7.39-.94,10.56-.96.83-2.16,1.93-4.17,3.29-6.01,0,0-.01,0-.02-.01-.55-.94-1.06-2,.02-3,.36-.34.63-.76.94-1.15-.39.05-.78.1-1.17.15-.12-.11-.23-.22-.35-.33.26-.36.45-.82.8-1.04,1.57-.97,1.59-.96.27-2.2.36-.2.71-.46,1.11-.58.43-.13.9-.12,1.61-.2-.36.63-.6,1.06-.83,1.46,1.58.79,1.6-.62,1.99-1.37.55.56,1.04,1.06,1.53,1.55.06-.47.12-.94.19-1.46.71.04,1.2.11.81,1.05-.11.27-.12.49-.06.68.72-.47,1.47-.92,2.24-1.33,2.38-1.26,5.32-3.13,8.63-5.48l-16.69-11.07.75-.11c.07-.61.64-1.28.99-1.98.38.06.81.08,1.2.21.42.13.8.36,1.19.55-.24.28-.49.55-.7.84l19.7-2.79c.35-.06,2.97-.53,6.46-1.96l-11.76-8.48,17.69-5.03s8.75-2.66,20.72-11.35c5.21-3.78,11.58-9.56,18.33-15.67,8.98-8.13,19.03-17.24,29.23-24.33.58-3.93,2.88-7.52,6.84-10.67.76-.6,1.54-1.27,2.33-1.99-.4-.73-.76-1.39-1.12-2.03-.68-1.22-1.51-.32-2.31-.2-.25.04-.56-.32-.82-.48-.31.63-.61,1.23-1,2.02-.72-1.35-1.54-1.94-2.47-1.76-.34-.61-.67-1.22-.92-1.67.82-.57,1.63-1.14,2.44-1.7l-.02-.02c-.39.03-.8.09-1.18.03-.19-.04-.5-.44-.46-.52.14-.24.59-.6.61-.58.38.32.7.7,1.04,1.06h.05l-.02.03c.08.06.22.11.22.17.05,1.28,1.07,1.4,1.95,1.38.9-.02,1.83-.16,1.92-1.51v.03c.05-1.08,2.32-2.6,3.56-2.62-.28.4-.81.83-.74,1.11.4,1.59-.6,1.99-2,2.2.53.36.9.62,1.29.88.31-.19.62-.37.58-.35.89.54,1.64.99,2.5,1.51,5.14-5.34,9.94-12,10.46-15.76.4-2.83.15-4.76-.14-5.9-5.65-3.33-16.37-11.31-20.32-25.47-1.89-6.77-2.46-13.04-1.77-18.54-.46.35-.93.69-1.41,1.05-.09-.73-.17-1.38-.23-1.91-.91-.24-1.55-.4-2.18-.57h.01c1.92-.83,2.51-.57,3.82,1.4.65-5.13,2.41-9.59,5.26-13.12,1.78-2.21,3.95-4.01,6.44-5.37-.98-2.42-1.88-5.21-2.51-8.31-2.6.68-5.18,1.41-7.74,2.17-.25,1.04-.49,1.98-.74,2.89-.05.18-.26.39-.44.45-1.37.44-2.4-.18-2.83-1.56-.05-.16-.19-.29-.34-.42-7.16,2.3-14.16,4.95-20.97,7.94.03.04.07.05.1.1.88,1.18,1.66,2.69,1.25,4.28-.11.41-.95.64-1.45.96.07-.36.07-.75.22-1.08.73-1.66.06-2.95-1.76-3.33-.01.01-.03.01-.03.01.44.75.09.88-.66.99-.51.08-.96.53-1.64.94-.39-.27-1.15-.11-1.85-.2-.58.28-1.16.55-1.74.83.07.47.11.95.38,1.18.34.29,1.13.26,1.65.12.91-.23,1.77-.66,3.01-1.14-.18,1.45-.31,2.44-.44,3.43-.09-.01-.18-.03-.27-.04.19.34.38.68.6,1.08-1,.03-1.82.05-3.01.08-.55-.82-1.38-2.04-2.34-3.45-.4.69-.52,1.16-.83,1.37-.47.32-1.26.78-1.56.61-.51-.3-.95-.77-.73-1.51-6.83,3.47-13.43,7.3-19.8,11.44-.04.3-.06.49-.08.61-.22-.03-.46-.07-.7-.11-1.73,1.14-3.44,2.31-5.14,3.5.11.17.23.36.35.61-.4-.02-.77-.03-1.16-.05-3.13,2.2-6.21,4.46-9.21,6.82.44-.14.87-.28,1.27-.41-.13.92-.23,1.64-.34,2.37.16.03.31.07.47.1.19-.31.39-.62.71-1.12.81.9,1.73,1.65,2.24,2.61.27.51-.18,1.39-.31,2.09-1.66-.4-2.95-.72-4.3-1.05.26-.21.66-.55,1.32-1.1-.76.11-1.24.22-1.72.24-.3.02-.81-.04-.86-.19-.1-.28-.07-.84.12-.96.73-.46.68-.94.22-1.49-.03-.03-.05-.06-.08-.09-10.9,8.71-20.9,18.45-29.85,29.06.2.6.36,1.05.36,1.5,0,1.47.35,1.79,1.9,1.42,1.17-.27,2.31-.95,3.52.09.24.21,1.08-.07,1.54-.31.96-.51,1.72-.2,2.05,1.05-.85,0-1.67-.02-2.82-.03.48.85.73,1.44,1.11,1.92.25.31.7.47,1.06.69-.32.37-.57.93-.98,1.07-1.85.64-3.68,1.12-5.46-.38-1.32-1.11-2.69-2.37-4.7-1.88.58-.9.56-1.77.35-2.64-.72.88-1.42,1.77-2.13,2.66.56.01,1.11.02,1.67.03-.59.43-1.18.86-1.7,1.24-.21-.15-.41-.3-.62-.45-1.17,1.5-2.32,3.02-3.46,4.55.06.58.41,1.15.66,1.71.17.41.39.8.61,1.22-1.59.45-2.88.84-4.18,1.18-.03.01-.07,0-.11,0-18.99,26.98-31.63,58.52-35.89,92.57.3.75.57,1.42.83,2.07-.13.07-.25.14-.38.21-.21-.27-.41-.55-.62-.82-.38,3.16-.67,6.33-.9,9.53.92-.24,1.85-.22,2.58.82.32.45.75.82,1.13,1.22.01-.43.03-.86.04-1.29.14-.1.29-.21.43-.31.35.35.84.64,1.02,1.06.81,1.87.8,1.89,2.44.69.15.43.39.86.45,1.31.07.49-.02.99-.06,1.78-.64-.5-1.09-.84-1.5-1.16-1.17,1.56.42,1.84,1.19,2.4-.73.5-1.37.93-2.02,1.37.52.15,1.04.3,1.61.47-.17.76-.34,1.27-1.33.68-.82-.49-1.41-.04-1.68.78-.16.47-.24.97-.41,1.73-.77-.26-1.47-.5-2.58-.88h-.08c.37,1.01.65,1.78.92,2.54-1.44.1-2.02.13-2.68-.18,0,.52-.03,1.03-.03,1.55,0,15.8,1.83,31.19,5.25,46,.26-.14.52-.29.79-.42.19-.4.18-.88-.26-1.47Zm8.26-4.98c.08.49.13.88.2,1.32.56-.4.94-.69,1.38-1.01.12.66.2,1.09.31,1.7h-.01c-1.27.23-2.34,0-3.08-1.27.41-.25.79-.49,1.2-.74Zm148.58-150.43c-.49-.5-.93-.95-1.49-1.53,1.27-.21,1.68.23,1.49,1.53Zm7.11-10.4s.05.11.05.11h0c-.81.43-1.61.86-2.42,1.28-.03-.11-.07-.22-.11-.33.83-.35,1.65-.71,2.48-1.06Zm-3.73,3.45c.1.14.19.27.29.4-.64.46-1.28.91-1.92,1.36-.23-1.64.88-1.43,1.63-1.75h0Zm-1.99-2.89c-.51-.77-.84-1.26-1.36-2.04h0c.95-.09,1.63-.15,2.45-.23-.4.83-.67,1.4-1.09,2.27Zm-.89-5.92h0c.9.76.74,1.07-.77,1.77-.07-.43-.15-.89-.24-1.45.34.17,1.01,1.2,1.01-.32Zm-2.76,8.92h0c.75,1.28,1.74,1.2,3.06.44-.67,1.32-2.46,2.12-3.09,1.51-.35-.34-.27-1.11-.38-1.68.13-.09.27-.18.41-.27Zm-11.24-70.63c.27.05.51.35.65.46.53-.18.95-.34,1.38-.49h0c.04.11.08.24.12.36-1.04,1.16-1.29,1.23-2.55.57-.23-.12-.37-.42-.55-.64.32-.1.66-.31.95-.26Zm-101.08,167.8c-.53.21-1.01.58-1.44.53-1.07-.11-2.11-.41-3.16-.64,0,0,0,.02,0,.02v-.02h.02c.29-.39.7-.74.84-1.18.41-1.25,1.08-1.04,1.86-.4.57.47,1.11.99,1.89,1.69Zm-4.6-10.89c.44-.17.94-.29,1.4-.24.13.01.19.66.28,1.02-.47.09-.94.17-1.6.3-.04-.51-.16-1.05-.08-1.08Zm7.85,2.92c-.07-.08-.15-.16-.22-.24.02-.67.05-1.33.08-1.99.12-.07.25-.14.37-.21.25.41.73.86.68,1.23-.06.43-.59.79-.92,1.19v.02Zm1.82-4.61c-.15.07-.3.13-.45.19-.29-.47-.59-.95-1-1.6.61-.05.91-.09,1.2-.09.13,0,.26.11.45.2-.07.44-.13.87-.2,1.3Zm-2.09-40.78c-.14-.06-.19-.82-.01-1,1.07-1.05,1.93-.11,2.93.32-.83,1.19-1.86,1.15-2.92.68Zm11.14,8.49c-.07.14-.15.29-.22.43-.97-.44-2-.78-2.87-1.36-.31-.2-.21-.98-.29-1.41.95.01,1.54.04,2.12-.03.06,0,.15-.64.05-.93-.53-1.5-.38-1.76,1.51-2.02-1.39.99-.85,1.74.07,2.43.32.24.69.42,1.04.62-.71.44-1.42.87-2.19,1.35.37.44.58.68.78.92Zm-1.27-14.14c1.49-.81,2.6-.51,3.33.89-1.23-.33-2.17-.58-3.33-.89Zm2.72,11.89s-.03-.02-.04-.02c.01-.01.03-.02.03-.02,0,0,.03.02.04.02-.01,0-.02.02-.03.02Zm8.5,8.16c-.5-.53-1.01-.96-1.35-1.49h0c-.24-.37-.23-.89-.33-1.35.45-.07.95-.28,1.35-.16.57.18,1.06.6,1.62.93-.51.82-.93,1.5-1.29,2.07Zm1.29-28.58c.79-.31,1.42-.55,2.05-.8-.38,1.78-.64,1.85-2.05.8Zm2.56,9.51h0c-.01-.19-.03-.38-.03-.56.6-.26,1.21-.51,1.81-.77.11.12.22.23.33.34-.25.44-.39,1.06-.77,1.27-.29.17-.88-.17-1.34-.28Zm2.55,30.73h0c-.35-.3-.71-.61-1.06-.92.15-.6.31-1.21.46-1.81.79.56,1.58,1.12,2.6,1.84-.89.39-1.44.64-2,.89Zm3.94-28.93c-.86-.61-1.65-1.18-2.6-1.87.68-.49,1.23-.88,1.89-1.35h.01c.99,1.75,1.23,2.83.7,3.22Zm4.57-6.48h0c-1.37-.84-.44-1.92-.41-2.86.63.09,1.27.17,2.03.27-.66,1.06-1.12,1.79-1.62,2.59Zm12.24-19.25c-.33.71-.44,1.91-1.84,1.74-1.16-.14-2.45,1.37-1.77,2.03,1.08,1.06.31,1.6-.29,2.31-.58.68-1.14,1.39-1.87,2.28-.49-1.19-.81-1.94-1.11-2.7-.27-.66-.52-1.33-.78-2-.14.06-.27.12-.41.18h0c.23,1.74-.08,2.05-2.24,2.14-.36-1.92-1.6-3.98,1.13-5.43-.37-.03-.74-.05-1.18-.08,1.42-2.67,3.66-2.9,6.27-2.19.22-.49.42-.93.68-1.49.35.44.59.74.93,1.17.78-1.1,1.77-1.03,2.36-.18.38.55.41,1.6.13,2.22Zm-10.5-33.43c.28-.35.6-.82,1-1.2.23-.22.58-.4.89-.41.26-.01.63.18.78.39.39.57.69,1.2,1.07,1.89.21-.36.36-.61.66-1.13.64,1.41,1.17,2.56,1.81,3.94-.99-.03-1.53-.05-2.06-.06.01.38.02.67.02.95.01.03.03.06.04.09-.01.01-.01.02-.01.02.61.66,1.21,1.31,1.82,1.97-.09.08-.17.17-.26.26-.85-.31-1.69-.63-2.64-.98.44-.51.76-.88,1.08-1.25-.01,0-.03-.03-.03-.03v-.08c-.22-.46-.41-.93-.69-1.35-.27-.4-.63-.72-.96-1.08h-.01c.01.66.03,1.32.05,1.98-.69-.19-1.4-.33-2.06-.6-.2-.08-.4-.55-.33-.77.07-.23.44-.46.71-.51.53-.1,1.08-.08,1.62-.1v-.02l.02.02h.04c-.9-.68-1.8-1.36-2.56-1.94Zm-2.12-15.91h-.04s.03-.01.03-.01c-.27-.55-.55-1.11-.94-1.9.74.27,1.11.4,1.92.69-.53-.95-.85-1.55-1.18-2.14.18-.08.35-.15.53-.23.41.97.86,1.92,1.16,2.92.03.07-.95.43-1.49.66h0Zm.94,5.8h0c.15-.34.53-.72.87-.79.33-.07.74.22.93.29-.53.54-.93.97-1.36,1.37-.14.13-.34.21-.51.31h0c0-.4-.08-.84.07-1.18Zm12.58-4.24c.13.9.31,1.71.34,2.53,0,.36-.17.95-.44,1.07-.76.35-1.61.52-2.43.76-.17-.71-.34-1.43-.51-2.14-.04-.12-.08-.25-.04-.12-.73-.54-1.54-.84-1.72-1.35-.13-.4.53-1.06.91-1.73h-2.46c-.04.36-.08.7-.12,1.03-.51-.12-1.01-.24-1.5-.36h-.02c-.2-.19-.47-.35-.57-.58-.17-.38-.45-.96-.29-1.19.28-.39.84-.72,1.33-.79.31-.05.7.43,1.26.81-.02.01.29-.13.6-.16,1.44-.13,2.94.09,4.14-1.05.25-.24.84-.14,1.25-.2l.03.02c.38,1.71-.85,2.31-2.07,3.01.99.19,1.66.32,2.31.44Zm-3.34,27.13c-.41-.14-.83-.3-1.16-.57h.01c-.28-.23-.44-.61-.65-.93.08-.08.17-.16.26-.24.31.17.64.33.94.53.34.23.67.49,1.01.73-.14.17-.34.5-.41.48Zm.11,1.38c-.24.44-.47.9-.75,1.32-.03.04-.39-.12-.59-.19.21-.48.41-.95.62-1.43.24.1.48.2.72.3Zm-2.66-15.04c.06.1.11.21.17.32-.53-.2-1.07-.4-1.59-.59.06-1.58.52-1.84,2.5-1.2-.3-.62.49-1.41-.76-1.61-.06-.01-.03-.64-.03-.98,1.31.12,2.67.49,3.92.28h0c2.31-.39,2.56-.45,3.54,1.49.19.37.03.9.03,1.35-.46-.08-.95-.1-1.38-.27-.36-.14-.74-.72-.97-.65-1.83.56-3.62,1.23-5.43,1.86Zm.26-4.09c-.48-.48-.97-.97-1.67-1.69.67-.27,1.23-.62,1.82-.7.28-.04.95.55.92.62-.3.62-.69,1.18-1.07,1.77Zm0,.03s-.01,0-.01,0c0,0,0,0,0,0h.01Zm-2.38-9.71c-.66.98-1.35,1.06-2.2.4-.31-.24-.82-.24-1.49-.41.01.03-.05-.3-.11-.67,1.34.24,2.57.46,3.8.68Zm8.75,27.86c-.89.11-1.22.42-.7,1.26.17.27.26.58.38.86-.31.69-.63,1.37-.94,2.06h-.61c-.59-.28-1.68-.57-1.68-.86-.01-1.17.32-2.34.54-3.62.5.39.89.69,1.32,1.02.44-.52.79-1.08,1.29-1.47.3-.24.82-.24,1.25-.28.05,0,.24.53.21.55-.33.2-.69.43-1.06.48Zm3.97-4.51c-.57.22-1.16.42-1.7.62h-.02c-1.03-1.87-3.34-1.06-5.11-1.58.1-.3.17-.51.24-.72-.36-.18-.72-.35-1.08-.52.05-.13.09-.27.14-.4.76.18,1.52.37,2.15.52.63-1.05,1.23-2.05,2.01-3.35.34.82.5,1.24.67,1.65.51-.39.95-1.02,1.36-1,1.4.07,1.53-.69,1.53-1.86-.63.01-1.18.03-1.64.03.42-1.06.82-2.05,1.27-3.16.34.48.58.81.82,1.14-.25.38-.5.76-.78,1.18.44.3.86.83,1.33.87,1.12.1,1.37.52,1.07,1.53-.06.2.48.83.62.79,1.05-.26,2.12-.52,3.06-1.02.4-.22.49-.99.72-1.51.24-.78.85-1.41,1.33-2.11.66-.95,1.37-1.12,2.22-.54-.13.87-.4,1.67-.32,2.44.2,1.83-.03,2.13-1.6,1.9-.55.37-.99.58-1.3.9-.19.2-.21.57-.3.87,1.09-.01,2.19.03,3.27-.06.34-.03.67-.39.98-.63.07-.05.02-.26.02-.4-.04-1.97.11-2.12,2.97-1.86-.5.95-1,1.89-1.5,2.84,0,0,0,0,.01,0,.09.43.17.87.26,1.3.6-.17,1.19-.33,1.79-.5.02,0,.03,0,.03,0l-.03.04c1.08.03,2.32-.33,2.78.92-.38.66-.75,1.12-.94,1.65-.2.54-.23,1.14-.41,2.11-.28-.66-.49-.94-.49-1.22.01-.98.1-1.97.16-2.95-.08-.06-.17-.11-.25-.16-.36.63-.73,1.27-1.09,1.9-1.31-.77-2.14-.95-2.47-.53.47.39,1.24.73,1.33,1.2.27,1.43-1.66,2.81-3.01,2.17-.73-.34-1.43-.89-1.95-1.5-.72-.87-.54-2.39-2.08-2.72-.14-.03-.16-.68-.2-1.05-.05-.39-.06-.79-.1-1.44-1.2.36-2.24.68-2.95.9-.22.78-.24,1.32-.5,1.7-.29.44-.77.78-1.22,1.1-.32.23-.72.36-1.1.51Zm.11-24.33h.01c.42.14.98-.07,1.36.12.49.24,1.12.67,1.22,1.12.15.66-.25,1.23-1.17,1.11-1.26-.16-2.52-.26-3.88-.4.14-2.07.76-2.49,2.46-1.95Zm-1.3-5.13c.81.57,1.34.94,1.75,1.23-.54.55-.91.93-1.48,1.5-.09-.91-.16-1.64-.27-2.73Zm-.69,14.57c.36.44.72.89,1.08,1.33-.22.19-.45.37-.68.56-.39-.42-.78-.83-1.17-1.25.26-.21.51-.43.77-.64Zm18.61-13.14c.83-.41,1.45-.17,1.91.71-.64-.04-1.17-.08-1.56-.11.16.62.27,1.06.39,1.51.06.24.12.48.22.7.28.64.58,1.29.87,1.93-.14.08-.28.15-.42.22-.33-.24-.66-.47-1.07-.76.07.43.26.82.14.99-.63.85-1.35,1.64-2.03,2.44-.25-.55-.67-1.4-1.03-2.27-.03-.09.01-.23.07-.36-.73.17-1.47.3-2.2.45h0s.02-.01.02-.01c.1-.48.32-.96.27-1.42-.02-.22.01-.36.03-.51-.05.05-.07.11-.12.16-.19.18-.47.26-.81.44.09-.89.08-1.49.24-2.04.08-.28.46-.63.74-.66.26-.03.73.27.81.51s-.2.61-.37.9c0,.01-.01.02-.01.02.27-.07.6-.04,1.01.07.6.17,1.22.38,1.97.63.33-.27.65-.54,1.03-.85-.24-.36-.52-.77-.8-1.19-.68-.01-1.69.12-1.86-.19-.14-.26-.16-.58-.14-.93-1.27.22-2.42.43-3.56.63-.03-.07-.07-.13-.1-.2.87-.66,1.74-1.32,2.62-1.98.31.42.61.84,1.04,1.43.04-.43.12-.9.14-1.35.37-.09.77-.24,1.18-.28.43-.04.87.02,1.31.03-.12.41-.28.81-.34,1.23v.03c-.03.11-.04.23-.04.34.15-.09.29-.18.45-.26Zm.92-6.45c.57-.64,1.11-1.25,1.66-1.87.78,1.71.71,1.79-1.66,1.87Zm1.6,20.36c-.3.49-.65,1.06-1.01,1.64h-.01c-1.24-.57-1.35-2.44-.07-3.61.38.69.76,1.38,1.09,1.97Zm-3.64.09c-.26-.1-.51-.21-.87-.36,1.22-1.17.34-2.11-.27-3.1.62.08,1.22.17,1.52.21.17,1,.22,1.77.43,2.49.24.85,0,1.05-.81.76Zm2.07,9.13c.08.29.15.58.22.87-.52.24-1.15.77-1.54.64-.43-.14-.62-.91-.92-1.41.74-.03,1.49-.07,2.24-.1Zm-4.15-3.49c-.19-.14-.38-.27-.57-.4h.01c.29-.85.53-1.72.9-2.54.1-.22.56-.29.85-.43.08.28.26.57.22.84-.06.49-.17,1-.41,1.42-.24.42-.66.74-1,1.11Zm.95,5.73c-.66-.26-1.33-.52-1.99-.78.47-.25.94-.5,1.35-.72.16.22.39.45.51.73.11.23.1.5.13.77Zm-5.48-11.2c-.23-.16-.33-.5-.43-.65.5-.58.84-1.18,1.36-1.51.48-.3,1.15-.31,1.85-.48-.27-1.17.09-2.24,1.43-2.53.27-.06.79.98,1.2,1.52,0-.01.02-.02.02-.02,0,0,.02.02.02.03h-.03c-.58.52-1.16,1.05-1.79,1.63.49.34.76.52,1.26.87-.53.09-.86.04-1.02.18-.57.48-1.52,1.01-1.54,1.55-.05,1.3-.7,1.76-1.86,2.09-.11-.46-.21-.85-.27-1.08h-.03c.44-.42.76-.72,1.09-1.03-.42-.18-.88-.32-1.26-.57Zm3.02-8.71h0c.37.93.18,1.69-.65,2.31-.91.68-1.79,1.4-2.65,2.09-.35-.41-.81-.96-1.26-1.49.36-.35.83-.64,1.04-1.06.75-1.45,2.12-1.65,3.52-1.85Zm-3.99-8.91h-.01c-.25-.45-.58-.89-.52-.95.34-.33.74-.64,1.18-.78.12-.04.45.53.68.82-.39.26-.78.53-1.33.91Zm.49,1.38c.14.3.33.72.46,1.01-.61.53-1.14,1.13-1.79,1.51-.35.2-1.06.23-1.37.01-.65-.45-.66-2.43-.06-2.96.23-.2.73-.25,1.06-.18.57.12,1.1.39,1.7.61Zm-2.48,9.45c-.23-.04-.38-.51-.56-.78h-.01c.54-.25,1.08-.51,1.85-.88.11,1.53-.47,1.81-1.28,1.66Zm4.23,36.62c-.46.36-.75.71-.86.66-1.09-.5-1.6-.08-1.7,1.1h0c-.37-1.85.04-2.16,2.56-1.76Zm-.96-8.02c-.48.15-1.02.14-1.85.23.27-.64.38-1.21.53-1.22.51-.04,1.03.13,1.55.21-.07.27-.08.74-.23.78Zm-1.92-3.67c-.35.65-.71,1.33-1.05,1.96-.43-.44-.88-.91-1.39-1.43.85-.18,1.65-.36,2.44-.53Zm-5.5-4.37c1.35-.8.87,2.9,2.68.84.13.4.22.68.28.89h0c-1.09.33-2.08.62-3.08.91.05-.89.09-1.74.13-2.64Zm2.36,19.39c-.35.21-.75.33-1.14.46-.39.14-.79.26-1.19.38v.03h-.04s.01-.04.01-.04h.04c-.42-1.04.62-1.25,1.13-1.7.17-.15.78.12,1.15.28.09.04.13.54.04.59Zm1.64,3.55c-.4-.2-.8-.41-1.04-.53h0c.05-1.05.22-1.92.1-2.76-.14-1.01-.59-1.98-.78-2.99-.07-.37.13-.86.36-1.2.09-.13.79-.11.84,0,.31.72.71,1.47.73,2.22.03,1.75-.13,3.51-.21,5.26Zm.32-11.71c.12-.11.24-.23.36-.35.75.73,1.49,1.45,2.27,2.2-.77.29-1.25.47-1.6.6h0c-.35-.83-.69-1.64-1.03-2.45Zm3.37,10.85c-.22.4-.42.83-.73,1.15-.52.54-.96.56-1.14-.32h-.01c-.09-.45-.3-.87-.42-1.18.26-.77.51-1.51.78-2.33.81.24,2.04-1.06,2.83.23-.48.89-.88,1.68-1.31,2.45Zm3.19-5.19c-.44-.03-.91-.08-1.29-.28h.01c-.11-.06.05-.6.11-1.19.61.3,1.04.45,1.35.72.1.09-.13.75-.18.75Zm.24,4.86c.36-.43.47-.62.63-.75,1.03-.82,1.8.2,2.69.36-1,.12-2.01.24-3.32.39Zm3-4.21c.02.13.03.27.05.41-.65.16-1.29.33-1.94.49v-1.36c.82.2,1.35.33,1.89.46Zm-1.58-6.16s.02-.02.02-.02c0,.01.02.02.02.02h-.04Zm2.04,10.02v-.02s-.05,0-.07-.01c.03,0,.06,0,.08,0v.04Zm.8-9.58h-.01c-.22-.16-.48-.27-.64-.47-1.02-1.27-1.25-1.29-2.16,0-.16-.47-.31-.93-.51-1.52-.42.22-.83.44-1.41.74.11-.51.18-.82.25-1.14-.41-.04-.69-.07-1.21-.12,1.12-.9,1.88-1.95,3.33-1.32.54.24,1.08.48,1.61.72.01,0,.02-.03.02-.03v.04h-.02c-.73,1.26.08,2.07,1.01,2.86-.09.09-.17.17-.26.25Zm2.44-6.33h0c-.63-.04-1.24-.17-1.86-.28.05-.23.09-.47.13-.7.68.07,1.35.14,2.03.21-.1.27-.22.77-.3.77Zm1.51-15.74c-.2.94-3.06,1.29-4.06.22.87.02,1.49.03,2.45.05-.54-.59-.93-1.01-1.43-1.55.61.06,1.1.11,1.59.16-.05-.1-.09-.19-.13-.28.55-.25,1.11-.51,1.79-.82-.09.96-.09,1.6-.22,2.21h.01Zm2.18-28c.27-.51.38-.95.66-1.18.34-.29.83-.4,1.26-.59.15.44.51.93.42,1.32h.01c-.18.76-1.83.91-2.35.45Zm3.77,20.95c-1.38,1.08-1.6.99-2.25-.99.85.37,1.51.66,2.25.99Zm-2.88-13.39c-.45.38-.71.59-.96.81.03.1.06.19.09.28.28-.06.55-.12.84-.18-.01,1.14-1.44,2.12-2.42,1.69.71-.85.52-2.45,2.45-2.6Zm-1.76,32.83c.4.34.67.82,1,1.25l-.37.37c-.37-.35-.74-.7-1.1-1.06h-.01c-.16-.17-.3-.37-.45-.56.32,0,.76-.15.93,0Zm3.52,31.63c-.3.46-1.18.55-1.81.8-.14-.52-.29-1.04-.43-1.56h-.02v-.03c-.57.26-1.02,1.35-1.77.29h-.02c-.2-.29-.28-.99-.12-1.11.42-.3,1.01-.39,1.58-.58.14.63.22,1.02.31,1.4.01-.01.02-.01.02-.01.01.01.01.03.01.04.64-.07,1.27-.13,1.95-.2-.1-.13-.33-.28-.36-.47-.06-.38-.16-.88.02-1.15.56-.82,1.41-.85,1.33-.04-.26.15-.57.33-.51.3-.04.98.15,1.82-.18,2.32Zm-2.43-27c.96-.55,1.82-.98,2.76.2-.42.22-.77.4-1.12.59-.52-.25-1.03-.49-1.64-.79Zm3.74-19.62c-.25.68-.39,1.86-.78,1.94-.83.18-1.78-.2-3.09-.42,1.43-.75,2.45-1.29,3.47-1.83.14.1.27.21.41.31h-.01Zm3.72,50.33c-.57-.5-.76-.66-.93-.81.25-.32.52-.66.67-.84-.39-.61-.97-1.12-.87-1.43.23-.73.77-1.36,1.19-2.03.09.08.18.15.27.23-.1,1.51-.2,3.02-.33,4.88Zm-2.23-6.26c-.27.01-.65-.57-.8-.95h.01c-.8-2.08,1.37-1.45,2.01-2.12.44.35.84.67,1.34,1.07-.47,1.13-1.23,1.98-2.56,2Zm4.09-63.06c-.52.01-1.06-.05-1.55.07-.47.12-.88.43-1.31.66-.57-1.27.39-2.92,2.16-3.65-.54,1.06-.64,2.03.7,2.92Zm-.02-15.47h0c-.08-.2-.17-.4-.25-.59.77-.4,1.54-.82,2.33-1.17.03,0,.35.63.51.91-1.01.33-1.8.59-2.59.85Zm3.22,58.4c.31.52,1.11,1.37.93,1.66-.36.6-1.24.89-1.86,1.27.33-1.02.58-1.83.93-2.93Zm-4.52-3.74c-.08-.02.08-.85.13-1.31.73.12,1.47.2,2.17.42.11.03,0,.69,0,1.26-.92-.12-1.63-.17-2.3-.37Zm1.51,11.43c-.32.65-.7,1.28-1.07,1.91-.26-.15-.52-.3-.78-.45.38-.65.76-1.3,1.14-1.95h.01c.24.17.72.44.7.49Zm-.7-38.12c.16.03.31.05.47.08.08.64.17,1.28.28,2.12-.13.01-.26.03-.39.03.01.04.02.07.02.11-.34-.02-.67-.03-1.01-.04h0c.33-.03.66-.05.99-.08-.12-.74-.24-1.48-.36-2.22Zm-.38,9.67c.15.01.29.03.44.03,0,.61-.01,1.22-.02,2.2-.57-.54-.81-.77-.97-.92h0c.23-.53.39-.92.56-1.31Zm-3.06-34.18h-.01c-.02-.29-.05-.57-.07-.85.48-.03.95-.06,1.43-.09.03.23.07.46.1.69-.48.08-.97.17-1.45.25Zm3.39,59.91c-1.74.41-2.32-1.15-3.86-1.81,2.27-.66,2.5,1.56,3.86,1.81Zm-3.31.13c.18.08.36.15.54.23-.27.68-.53,1.37-.79,2.05-.22-.09-.43-.17-.64-.26h0c.29-.68.59-1.35.88-2.02Zm6.65,12.62c-.65.97-1.29.84-1.6.13-.26-.58-.15-1.33-.2-2h0c-.58,0-1.15.02-1.94.02.61-1.51,1.85-1.2,2.7-1.54.44.57.83,1.07,1.21,1.57-.64-.02-1.27-.04-1.91-.06.6.64,1.19,1.28,1.74,1.88Zm.21-1.82v.04s-.02-.03-.03-.04h.03c.07-.45.14-.9.25-1.62.8-.35,1.68.17,1.89,1.54-.71.02-1.43.05-2.14.08Zm.53-3.79c.44-.65,1.12-.46,2.05.55-.86-.23-1.42-.38-2.05-.55Zm1.85-3.29c-.53-.04-.97-.07-1.41-.1h0s-.02.01-.03.01c.48.76.13,1.28-.54,1.71-.36.23-.7.47-1.05.7-.33.22-.65.43-.98.65-.16-.39-.32-.77-.48-1.16-.01.01-.03.03-.03.03l.02-.05v.02c.46-.43.88-.94,1.41-1.27.48-.31,1.09-.43,1.64-.63v-.02h.04c.17-1.32-1.26-1.42-2-2.39,1.14.5,2.03.88,2.98,1.28.27-.68.57-1.45.92-2.33.21.18.72.49.68.62-.34,1.02-.79,2.01-1.17,2.93Zm7.16-5.99c-.15.03-.29.06-.44.09h0c-.41-.75-.81-1.49-1.3-2.37.9.37,1.47.61,2.05.85-.1.44-.2.94-.31,1.43Zm4.79-3.85c-.35-.81-.52-1.2-.69-1.6-.05.54,0,1.11-.18,1.62-.13.38-.45.89-.79.98-.64.17-1.36.08-2.37.11.88-1.19-.54-2.56.82-3.81.41,1.56,1.25,1.65,2.33,1-.51-.47-1.02-.94-1.63-1.5h0c1.6.09,2.83.17,4.45.27-.62.93-1.17,1.76-1.94,2.93Zm-4.69-8.23h-.01c.48-.29.84-.78,1.43-1.35.6.2,1.27.41,1.84.6-.3.76-.52,1.33-.75,1.9.06.01.11.02.17.02-.45.58-.9,1.16-1.22,1.57-1.17.02-2.33.03-3.38.05-.35-.49-.8-1.13-1.26-1.76-.4-.54-.88-1.03-1.2-1.61-.17-.29-.14-.74-.05-1.08.03-.11.55-.08.85-.12.04.35.07.7.1.97.51.18,1.27.22,1.44.55.61,1.19,1.36.66,2.04.26Zm-3.89-49.06c.18.15.36.3.54.45.07,1.12-1.35.55-1.98.89h-.01c.48-.45.97-.89,1.45-1.34Zm-.02,51.22c.07.19.14.39.21.58-.65.22-1.29.45-1.94.68h0c-.06-.21-.13-.42-.2-.63.64-.21,1.29-.42,1.93-.63Zm-1.95-37.46c-.55.28-1.09.57-1.64.86-.06-.28-.26-.76-.17-.82.44-.28.97-.46,1.46-.68.12.21.23.43.35.64Zm-3.8-33.45h0c.67.82.54,1.88.55,2.9-.31-.93-.63-1.85-.94-2.77.13-.05.26-.09.39-.13Zm-4.78,5.17h0c.11.17.23.35.35.53-.4.26-.79.53-1.21.74-.02.02-.27-.39-.42-.6.43-.22.85-.45,1.28-.67Zm-.19,4.26c1.02-.25,1.58-.1,1.44,1.21.14.01.27.02.41.02.48-.46,1.15-.85,1.4-1.41.66-1.45,1.89-1.84,2.88-.59h-.01c.85,1.06,1.37,2.38,2.1,3.71-.86.13-2.17-.71-1.69.59.57,1.54,0,2.39-.95,3.41.59-.22,1.18-.45,1.77-.67.05.19.1.37.15.55-1.1.24-2.2.47-3.39.73-.03-.56-.05-.9-.07-1.24-.55.51-.68,1.19-1.06,1.69-.34.44-.95.68-1.44,1-.06-.11-.13-.21-.19-.32.76-1.06.74-3.66-.02-4.65,1.02-1.35.99-1.31-.55-2.19-.89-.52-1.69-1.2-2.53-1.81.7-.15,1.27.09,1.75-.03Zm-1.8-5.53c-.04.14-.08.27-.12.41-.58.07-1.15.15-1.89.25-.09-.37-.17-.71-.33-1.43.97.32,1.65.54,2.34.77Zm-.84,30c-.8.71-1.34,1.2-2.04,1.82-.17-1.11.06-1.31,2.04-1.82Zm-1.82,4.42c1.8.41.8,2.02,1.36,2.93-.58-.92-2.3-1.38-1.36-2.93Zm-.56-15.62c-.53-.22-.93-.39-1.33-.56-.59.98-1.14,1.89-1.76,2.92-1.34-.42-2.77-.85-4.16-1.35-.17-.06-.37-.66-.28-.74.25-.24.81-.56.93-.47.8.64,1.54.32,2.34.05,1.09-.36,2.19-.66,3.3-.95.94-.25,1.3.06.96,1.1Zm-2.6-6.19v-.02c.18-.11.57.09.94.16-.09.49-.17.89-.17.93-.61-.05-1.2-.09-1.78-.13.33-.34.63-.72,1.01-.94Zm-1.57-3.37c.34.01.65.37.98.58-.99,1.16-1.18,1.17-2.53-.21.61-.16,1.09-.39,1.55-.37Zm.52,4.33h-.01s-.02,0-.02,0c0,0,0,0,0,0h.03Zm-6.87-1.76c.77-.31,1.86-.32,1.76-1.61,0-.09.75-.42.99-.31.86.4,1.67.92,2.45,1.45.26.18.39.55.4.57-.91.15-1.71.25-2.49.44-.08.02-.03.56-.03.88.64-.13,1.29-.4,1.9-.34.62.06,1.21.43,1.81.68-.41.19-.83.37-1.44.65.52.41,1.06.81,1.62,1.24-.13.09-.38.35-.66.39-1.25.19-2.45.33-3.22,1.56-.2.33-.97.31-1.5.45-.28-1.31-.99-2.55-2.13-3.72-.69-.71-.37-1.97.54-2.33Zm-.67,12.22c.12-.06.28,0,.49,0,.12.44.24.85.36,1.27-.11.12-.22.23-.33.35-.47-.31-.93-.63-1.58-1.05.54-.3.79-.46,1.06-.57Zm-3.02-12.61h0c.4.04,1.11,1.04,1.01,1.45-.49,2.11-1.81.24-2.83.58.23-1.18.61-2.14,1.82-2.03Zm-5.43,5.1c.15-.14.38-.21.58-.31-.01-.01-.01-.02-.01-.02.01-.02.01-.05.01-.05-.81-1.59-.53-2.43.74-2.64-.23.83-.49,1.74-.74,2.64.01.02.01.04.02.06,0,.01-.02.01-.02.01.1.2.3.43.26.59-.1.38-.33.72-.51,1.08-.35-.18-.69-.35-1.04-.53.24-.28.45-.58.71-.83Zm-5.18,4.34h.01c.7.58.53,1.34-.45,1.95-.03-.14-.1-.28-.07-.39.15-.52.34-1.04.51-1.56Zm-3.39,3.67c-.98,1.76-1.56,1.85-3.03.67,1-.22,1.84-.41,3.03-.67Zm-5.45-1.68c.36-.26.71-.68,1.1-.73,1.29-.16,1.52.69.91,1.47-.21.27-1.38-.18-2.11-.3.04-.14.07-.29.1-.44Zm.22,4.13c.67.91,1.22,1.64,1.78,2.4-.49.03-.94.06-1.11.07-.5-.77-.89-1.35-1.36-2.06.23-.13.53-.31.69-.41Zm-.81,4.28c1.15,0,2.3-.5,3.33-.23.76.19,1.3,1.18,1.94,1.81.63-.67,1.25-1.34,1.89-1.99.75-.76,1.27-1.51.35-2.49-.19-.21-.29-.5-.48-.85.97.17,1.74.31,2.51.45-.01-.36-.17-.8-.02-1.06.43-.74,1.1-1.37,1.48-2.13.68-1.35,1.14-2.79,1.83-4.13.4-.77.52-1.36-.14-2.03-.2-.2-.19-.6-.29-.98.73.38,1.21.63,1.69.88.01,0,.02.01.03.02.07.94.27,1.83.72,2.67.3-.37.74-.58,1.28-.68-.63-.64-1.29-1.3-1.95-1.97.56.28,1.23.82,1.63.67,1.5-.55,3.38-.09,4.52-1.64.17-.23.8-.12,1.23-.17.03.28.2.74.08.83-1.38,1.02-1.6,3.62-4.64,2.72,1.42,1.58,3.03,2.62,2.02,4.52-1.7,1.15-2.56.1-3.18-1.2-.04.02-.07.04-.1.06.23,1,.29,2.01.1,3.05-.31-.12-.51-.28-.51-.44-.02-.78-.05-1.53-.33-2.19-.36.21-.71.4-1.08.51-1.65.51-2.41,1.6-2.14,3.23.06.34.04.69.06,1.03-.2-.02-.41-.05-.61-.07-.22-.4-.43-.79-.65-1.18-.33.35-.71.68-1,1.06-.57.74-1.15,1.49-1.63,2.29-.36.61-.42,1.42-.87,1.91-.35.38-.75,1.36-1.65.61-.59.21-1.18.43-1.75.64v.02c1.82.49,1.94.69,1.25,2.27-.45-.83-.85-1.55-1.25-2.27-.02-.01-.03-.01-.05-.01l.03-.02c-.8.21-1.61.42-2.31.6.17-.85.33-1.66.54-2.74-.54.29-.79.38-1,.54-.2.15-.36.36-.54.55-1.11-1.11-1.21-2.47-.34-2.47Zm-.55,5.84c-.9-.67-1.8-1.33-2.79-2.07,1.05-.08,1.98.61,2.79,2.07Zm-4.92-8.55c.57-1.34.71-1.36,2.17-.37,0,.73-.02,1.43-.02,2.23h-2.08c.27-.35.54-.68.93-1.19-.17-.12-.59-.39-1-.67Zm-5.74-1.85c1-.27,1.76-.47,2.52-.67-.22-.3-.43-.61-.69-.97,1-.45,2.23-1.02,3.46-1.58.02-.04.02-.09.05-.13.03-.01.05-.02.08-.02.14-.94.27-1.88.37-2.54.6-.6,1.02-1.03,1.53-1.53v.03c.34.65,1.48,1.02.37,2-.43.38-.67.95-1,1.43.11.09.22.18.33.27-.53.12-1.07.24-1.6.36-.01.04-.01.07-.01.1-.04.01-.08.03-.12.05-.22.54.23,1.33-.16,1.82.25.21.51.43.77.65.09-.01.17-.01.26-.01.04.08.09.15.14.22-.03.02-.06.04-.09.06.14.12.27.23.41.35-.41.06-.83.13-1.23.2-.33.22-.68.45-1.06.71.81,1.66-.65,1.93-2.14,2.18.05.18.09.35.14.53,1.15.08,2.3.15,3.45.23,0-.01-.03-.02-.03-.02h.04-.01c.53.33,1.06.66,1.71,1.05-1.25.66-2.4,1.27-3.21,1.69-.12.74-.14,1.69-.31,1.72-1.49.24-.53-1.27-1.17-1.67-.65-.12-1.59-.02-1.85-.39-.56-.79-.77-1.82-1.18-2.88.59.1,1.02.17,1.32.22,1.93-1.91-1.18-2.42-1.09-3.46Zm-3.82,20.18h.03v.05c.48.9,1.3,1.82-.39,2.78.15-1.04.27-1.91.39-2.78-.01-.02-.03-.05-.03-.05Zm-.9,4.66c.24.04.61.27.62.44.01.25-.16.64-.37.76-.67.39-1.39.68-2.11,1.01-.11-.74,1.22-2.32,1.86-2.21Zm-4.97,17.81c-1.95.35-1.39-.77-1.09-1.69.2-.62.54-1.21.9-1.99.18,1.04.33,1.93.41,2.37.76.4,1.16.67,1.6.82.29.1.8.16.93,0,.83-.95,1.58-1.97,2.36-2.97-.19-.01-.37-.03-.55-.04-.13-.57-.57-1.44-.34-1.66.88-.85,1.9-1.7,3.32-.84.48.28,1.02.45,1.54.66-.17-.4-.33-.8-.5-1.2h-.01c.09-.16.17-.32.26-.47.47.18,1.04.25,1.38.56,1.52,1.38,1.52,1.4,2.51-.35.32.33.71.62.96,1.01.27.42.39.92.69,1.65-.79-.2-1.34-.33-1.85-.46-.41,1.9,1.15,1.52,2.09,1.72-.46.75-.86,1.4-1.27,2.06.54-.07,1.08-.13,1.67-.21.16.76.22,1.31-.93,1.16-.95-.12-1.31.52-1.21,1.38.05.49.19.98.35,1.74-.84.07-1.59.13-2.82.23.77.79,1.35,1.39,1.93,1.98-2.12,1.12-2.12,1.1-4.59.55-.23-.05-.57.37-.86.58-2.42-.3-4.83-.61-7.25-.91-.77-.7-1.58-1.36-2.29-2.12-.21-.22-.13-.71-.18-1.07.36.11.88.1,1.05.34.44.6.73,1.32,1.12,2.05.64-1.37,1-2.19,1.4-2.99.44-.9.05-2.03-.73-1.89Zm-2.71,17.78c-.37.13-.84.45-1.08.33-.33-.17-.67-.67-.67-1.03-.01-.59.24-1.19.38-1.79.09-.02.19-.05.28-.07.18.56.34,1.13.56,1.68.12.31.34.59.52.88h.01Zm-2.35-41.13c.23.01.46.01.64.01.1-.49.2-.92.29-1.36-.01-.01-.03-.03-.03-.03h.04-.01v.03c.49.48.99.95,1.71,1.65-1.13.03-1.88.04-2.64.06v-.36Zm.04,42.61c.67,1.15-.52,3.62-1.8,3.64-.26,0-.76-.53-.76-.53.71-1.12.36-3.03,2.56-3.11Zm-3.61,13.2c.61.14,1.22.29,1.83.43-.04.21-.09.43-.13.64-.63-.07-1.25-.15-1.87-.22.06-.28.11-.57.17-.85Zm1.74,12.58c-.01,1.29-.03,2.11-.03,2.93-.11.02-.23.04-.34.06-.16-.37-.32-.74-.52-1.18-.53.19-.96.34-1.39.49v-.02c-.12-.11-.23-.23-.34-.34.75-.56,1.51-1.12,2.62-1.94Zm-4.07,5.83v-.03c1.73.12,3.45.25,5.45.39-.12-.72-.25-1.53-.44-2.73.77.33,1.5.61,2.22.94.69.32,1.35.69,2.32,1.18-1,.06-2.03-.19-2.5.21-.53.45-.56,1.47-.89,2.51-.53.58-1.1-1.83-1.72-.42-.28.64.23,1.61.43,2.7-.84-.37-1.61-.74-2.4-1.05-1.16-.45-2.33-.85-3.5-1.27.73-.51,1.44-1.02,2.37-1.68-.49-.16-.93-.31-1.37-.45.01-.1.03-.2.03-.3Zm-.42-25.53c-.28.91-.56,1.64-.73,2.39-.16.73-.44,1.43-1.29,1.03-.44-.21-.89-1.01-.84-1.49.17-1.62,1.51-1.8,2.86-1.93Zm-2.9-5c-.75.13-1.43.24-2.11.36-.15-.83-.3-1.65-.51-2.74,1.07.84,2.73.59,2.62,2.38Zm-1.04,2.51c.23.23-.21,1.11-.3,1.48-.61-.28-.99-.46-1.58-.73-.06-.27-.17-.82-.36-1.7.93.36,1.76.48,2.24.95Zm-2.46,44.12c.04-.35.74-.64,1.15-.95.12.11.24.21.36.32-.18.68-.37,1.36-.68,2.49-.42-.86-.88-1.38-.83-1.85h0Zm.77,11.31c.31.23.61.45.91.68-.35.43-.71.87-1.06,1.3h0c-.22-.13-.43-.26-.64-.39.26-.53.53-1.06.79-1.59Zm-1.05-28.3c-.12.31-.17.68-.38.91-.49.52-1.06.97-1.7,1.54-.87-1.51-.46-2.65.99-2.81.34-.04.73.23,1.09.36Zm-.42-5.17c-.23.89-.33,1.37-.49,1.83-.07.2-.25.42-.44.5-.12.06-.47-.1-.5-.22-.05-.21,0-.5.13-.67h0c.3-.4.68-.76,1.31-1.44Zm-1.45-.1c-.59-.5-1.35-.91-1.7-1.54-.18-.32.26-1.13.63-1.52.21-.22.86-.03.91-.03-.39.62-.97,1.32-.87,1.43h.01c.4.43,1.01.68,1.54,1-.18.22-.35.44-.52.66Zm-1.84-36.39h.02c.69.79,1.44,1.46,1.87,2.29.09.18-1.05.94-1.84,1.63.02.18.08.71.14,1.25-.08.04-.16.08-.24.12-.6-.94-1.2-1.88-1.79-2.81.46-.63,1.01-1.37,1.84-2.48Zm-2,24.28c-.08.21-.17.43-.26.65-1.01-1.22-3.07.31-3.94-1.27.1-.27.21-.55.31-.82h0c1.29.48,2.59.96,3.89,1.44Zm-2.19-16.79c-1.56-1.36-1.69-2.08-.47-3.5.4,1.27,1.53,2.21.47,3.5Zm-.48-17.87c.04.67.07,1.25.1,1.73-.42.05-.82.09-1.35.15-.25-.58-.47-1.09-.72-1.65.73-.09,1.34-.16,1.97-.23Zm-2.82-4.14h.03s-.02.02-.02.04v-.04s-.01.04-.01.04h-.06s.04-.03.06-.04Zm-.28,30.67c1.3.04,2.11.06,2.93.08.06.17.12.33.18.49-.5.36-1.03,1.03-1.49.99-.46-.04-.86-.78-1.62-1.55h0Zm3.7,25.99c-.27,1.42-1.96,1.78-4.15.96,1.16-1.77,2.75-.7,4.15-.96Zm-1.74,29.98c-.04.85-.07,1.57-.12,2.53-.61-.21-1.15-.4-1.7-.59-.1,1.51-.49,2.92-1.37,4.18-.23-.23-.34-.45-.28-.6.56-1.31,1.04-2.51.05-3.96h-.01c-.42-.62.38-.69.89-.31.51-1.25,1.45-1.55,2.54-1.25Zm-5.35-15.44c1.33-.49,2.18-.28,2.53.65-.95-.25-1.74-.45-2.53-.65Zm1.16-37.87c-.15.06-.8-.62-.88-1.02-.3-1.55,1.1-1.59,2.11-2.16.11,1.42.18,2.65-1.23,3.18Zm-.22-8.9h.01c1.33.03,1.46,1.13,1.41,2.38-.9.27-1.71.51-2.53.75-.06-.16-.12-.33-.18-.49.4-.83.81-1.66,1.29-2.64Zm-1.83,19.87c.23.05.45.11.68.16-.07.51-.15,1.02-.22,1.53-.33-.08-.65-.15-.98-.22.17-.49.35-.98.52-1.47Zm1.51,8.48c1.73.71,1.97.56,1.53,2.35-.24.98-.57,1.94-.86,2.92-1.58-.24-3.2-1.92-3.31-3.5h-.01c-.51-.25-1.03-.5-1.81-.88,1.63-.89,2.71-1.61,4.46-.89Zm-3.88,54.06c1.28-1.02,2.62-.66,3.98-.28-.05.99-.53,1.61-1.55,1.84-1.11.26-2.21.57-3.29.85-.15-.51-.34-1.2-.53-1.86.47-.18,1.02-.26,1.39-.55Zm-24.82,4.47c-.93-.2-1.67-.35-2.52-.53.87-.58,1.74-1.16,2.74-1.83-.08.86-.17,1.77-.22,2.36Zm9.16-10.64c.69-.56,1.14-.92,1.49-1.2.36.59.6.99.98,1.6-.82-.13-1.48-.24-2.47-.4Zm7.28-11.67c.34-.57.73-1.11,1.25-1.88.27.43.67.79.69,1.17.05.94-.07,1.87-.12,2.81h0v-.02c-.4-.2-.77-.5-1.19-.56v.03c-1.18-.18-1.1-.79-.63-1.55Zm1.72,37.23h0c-.47-.14-.79-.78-1.18-1.21.1-.06.2-.13.3-.19.75.15,1.49.3,2.23.45.06.15.11.29.17.44-.51.19-1.1.63-1.51.51Zm2.58-29.43c-.73.28-1.22.47-1.98.77.27-.8.5-1.47.82-2.39-.13-.26-.27-.51-.47-.68-1.11-.96-.97-2.16-.83-3.39h0c.9-.1,1.53.23,1.89,1.08.4.92.84,1.83,1.25,2.72-.4.17-.92.41-1.43.64.31.51.56.94.75,1.25Zm1.32-27.14c.14-.02.55.7.77.99-1.26.26-2.26.47-3.26.68-.05-.15-.11-.3-.17-.45.88-.43,1.74-.91,2.66-1.22Zm-2.98-44.81c-.11.64-.23,1.27-.35,1.9-.1-.02-.19-.03-.29-.05-.2-.6-.4-1.2-.67-2.01.49.06.9.11,1.31.16Zm-1.3,18.36c-.65.87-1.08,1.45-1.61,2.16-.28-.85-.45-1.39-.68-2.09.6-.02,1.22-.04,2.29-.07Zm-4.77,43.49c.06-.37.21-.73.32-1.1h.01c.33.18.66.41,1.01.56.4.18.84.28,1.39.46-.18.54-.28,1.61-.63,1.69-.61.14-1.36-.32-2.12-.55,0-.33-.04-.7.02-1.06Zm-2.66-6.17c.5,1.05,1.01,2.09,1.58,3.29-.97-.25-1.98-.5-2.63-.67.39-.97.7-1.73,1.05-2.62Zm-1.36,10.55c.14.39.29.78.5,1.33-.45.11-.92.29-.96.22-.21-.35-.4-.77-.42-1.17-.01-.11.57-.25.88-.38Zm-4.58-6.53c.41-.01.8-.01,1.2-.01h.01c.07.12.15.24.23.36-.39.33-.77.65-1.3,1.1-.14-.53-.22-.77-.26-1.03,0-.12.07-.25.12-.42Zm-4.78,5.42c.77-.09,1.43-.16,2.3-.26v-.02c-.1.56-.19,1.06-.28,1.56,1.37-.12,2.7.01,3.97.59-.17.23-.36.36-.5.33-1.27-.29-2.42-.54-3.58.53-.5.46-.68-.22-.41-.72-1.21-.26-1.61-1.03-1.5-2.01Zm-1.94-24.4c.18.01.36.03.54.03-.06.85-.12,1.71-.18,2.56h-.5c.05-.87.09-1.73.14-2.59Zm-1.57,15.57c.16-.29.32-.59.48-.88.44.24.89.49,1.33.73-.08.21-.17.41-.26.61-.52-.15-1.03-.3-1.55-.45h0Zm.03,88.32c-.71-.09-1.34-.16-2.15-.26.85-.95,1.45-.86,2.15.26Zm-1.3-12.46s.07.03.11.05c-.34.83-.69,1.66-1.03,2.49-.1-.06-.2-.12-.3-.18.41-.79.81-1.57,1.22-2.36Zm-.62,4.99c.16.05.32.09.48.13-.2.75-.4,1.48-.6,2.23-1.23-1.12-.25-1.65.12-2.36Zm-4.06-3.43h0c.23.89.39,1.5.63,2.44-.89-.28-1.47-.45-2.37-.73.68-.67,1.16-1.14,1.74-1.71Zm-.23,7.02c1.42.52,2.13-.15,2.65-1.56.34,1.44-.52,3.17-1.4,3.09-.49-.05-.93-.69-1.39-1.06.05-.16.09-.31.14-.47Z"></path>
      <path class="cls-1" d="m384.97,173.29c.94.49,1.91.99,3.09,1.6-.82.31-1.24.47-1.65.63.5.5,1.24.94,1.28,1.34.14,1.36.97,1.5,2.22,1.52-.1-.62-.2-1.16-.28-1.61,1.19.43,2.31.84,3.56,1.29-.45.32-.76.55-1.08.78-.45-.25-.89-.49-1.38-.77-.26.43-.76.83-.73,1.29.08,1.1-.33,1.34-1.46,1.03-.22-.06-.8.46-.74.6.43,1.03.88,2.09,1.56,3.01.29.39,1.13.49,1.72.72.87.24,1.63.84,2.46,1.32,1.11.65,1.4,1.35.92,2.17-.95-.13-1.85-.41-2.65-.34-1.93.17-2.28-.05-2.28-1.59-.48-.54-.77-.97-1.16-1.28-.25-.2-.65-.21-.98-.31.18,1.07.31,2.14.57,3.2.08.34.51.67.82.97.07.07.28.03.43.03,2.1-.02,2.27.13,2.44,2.92-1.09-.5-2.17-1-3.26-1.5v.03c.34.47.69.95.99,1.36-.21.15-.42.38-.7.49-.24.09-.54.08-.83.11v.03h-.01s0,0,0,0c.18-.66.36-1.31.54-1.97-.01-.01-.02-.03-.02-.03-.44.08-.89.16-1.34.24.26.58.52,1.16.79,1.74h0c.14,1.05.71,2.27-.55,2.7-.75-.38-1.31-.74-1.9-.94-.61-.2-1.25-.24-2.31-.42.67-.26.93-.46,1.23-.46,1.05.02,2.11.12,3.17.19.04-.08.09-.16.13-.24-.73-.36-1.46-.73-2.19-1.09.62-1.27.68-2.08.18-2.41-.36.45-.6,1.2-1.08,1.28-.24.04-.47,0-.71-.05-2.51,8.84-7.52,15.11-11.51,18.21l-5.23,4.01c.14.27.26.54.41.8h.02v.04c1.43.19,1.31-1.24,2.26-1.94-.36,1.12-.63,1.99-.92,2.91h.02c.78.26,1.64.57,2.63.92-.16.2-.41.7-.56.66-1.14-.34-2.27-.79-3.31-1.18-.04-.51-.08-.94-.11-1.37h-.01s-.02-.02-.02-.03c-.52.32-.97.24-1.39-.06l-6.08,4.67-.96-7.14c-.45.44-.91.87-1.33,1.28,0,0,0,0-.02,0l-6.51,8.27s-3.71,4.75-9.15,9.75c.8,1.81,2.22,4.07,4.75,6.29l2.01,1.75c6.11,5.28,11.88,10.28,11.42,17.68-.03.44-.08.88-.15,1.31,4.95-2.96,10.64-5.66,15.85-6.42.75-.52,1.75-1.27,2.89-2.22-.02-.1-.03-.2-.05-.31.07.07.13.13.19.19,2.18-1.85,4.82-4.47,7.12-7.83-.48-.66-.95-1.32-1.43-1.97.11-.04.22-.07.33-.11.4.65.8,1.29,1.2,1.94.7-1.04,1.37-2.13,1.98-3.31-1.15-3.04-2.24-7.52-1.89-12.97-.34-.22-.65-.42-.9-.59-.2-1.14-.39-2.27-.57-3.3.47-.34,1.08-.77,1.68-1.21.23-.17.44-.35.66-.53.55-2.29,1.37-4.68,2.54-7.19,2.85-6.03,5.98-9.89,8.43-12.75-.36-.03-.68-.06-.99-.12h0c-1.03-.21-1.85-3-.86-3.97.11.85.19,1.45.32,2.39.55-.53.93-.9,1.43-1.38.03.59.06,1.07.08,1.55.1-.04.19-.08.28-.12.17.26.33.51.51.78.51-.59.92-1.07,1.26-1.48-.39-.2-.79-.42-1.2-.64.27-.81,1.25-1.1,2.3-.84.23-.39.33-.69.35-1.01-.15.03-.3.06-.45.09-.88.23-1.13-.02-.94-.8.06-.25.14-.5.24-.85.4.34.76.5,1.09.57-.07-.62-.15-1.27-.23-1.94-.1.16-.2.33-.33.55-.17-.52-.18-.84-.35-1-.6-.56-1.31-1.49-1.89-1.52-1.39-.07-1.99-.71-2.52-1.85.48-.11.87-.2,1.11-.25.49.43.87.76,1.25,1.08.14-.42.21-.87.42-1.23.14-.22.48-.32.63-.41.42.31.84.55,1.2.81-.14-1.17-.28-2.33-.41-3.49-5.1-5.23-10.47-10.21-16.1-14.9.31,1.42.54,2.81.72,4.17Zm1.95,61.25h.01c.24.95.41,1.61.62,2.41-.94-.4-1.59-.68-2.59-1.1.73-.49,1.21-.81,1.96-1.31Zm-3.53-34.9c.15-.17.34-.3.52-.44h0c.06.31.28.74.15.91-.3.39-.78.65-1.18.96-.15-.12-.3-.25-.45-.37.32-.35.63-.71.96-1.06Zm-4.69,3.06c.18-.5.37-1,.59-1.6h0c.73.96,1.33,1.8.21,2.71-.3-.41-.55-.75-.8-1.1h0Zm2.64,6.37c-.03.72,0,1.45-.12,2.13-.02.1-.75-.01-1.35-.02-.01-.9-.07-1.6.04-2.25h.01c.02-.09.92.09,1.42.14Zm-7.98,3.27c1.14.33,2.04.59,3.26.94-.51.3-1.29,1.06-1.63.89-.69-.35-1.13-1.22-1.64-1.83h.01Zm3.84,8.37c-.25.87-.41,1.43-.58,1.99-.48-.1-1.03-.21-1.57-.32-.05-.14-.11-.29-.16-.43h-.01c.73-.39,1.45-.77,2.32-1.24Zm-14.56,14.07c.87.32,1.73.65,2.6.97-.06.19-.12.39-.18.58-.86-.35-1.73-.71-2.59-1.06.05-.16.11-.33.17-.49Zm-2.12,6.8l.02-.02s.01.02.01.03c-.01,0-.03,0-.03,0Zm2.24,4.01h0c-.74-1.34-1.47-2.66-2.19-3.99.32.11.65.22.97.33.01-2.36.8-3.68,2.07-3.69.1.62.07,1.29.35,1.85.48.96,1.16,1.86,1.75,2.79-.43-.12-.88-.25-1.54-.42-.38.84-.89,1.99-1.41,3.13Zm3.77-.87c-.35-.12-.68-.37-1.02-.56.33-.12.67-.24,1.11-.39-.25-.25-.53-.55-.82-.84h-.03s0-.01-.02-.02h.02s.02.02.02.02c.91-.23,1.62-1.09,2.79-.55-.19.5-.49.84-.42,1.17.27,1.36-.36,1.62-1.63,1.17Zm7.64.56c-.14.17-.78.2-1.01.04h.01c-.69-.48-1.49-1.02-1.12-1.28.69.14,1.38.28,2.21.44.04-.89.05-1.23.08-1.93.97,1.39.34,2.08-.17,2.73Zm-.54-7.43c.07.67.12,1.14.18,1.68-.67-.34-1.11-.56-1.73-.87.47-1.1,1.26-1.76,2.84-1.48h0c.01.47.02.9.03,1.37-.49-.26-.88-.46-1.32-.7Zm.61-3.49c.47-.48.88-.9,1.41-1.44.41,1.25,0,1.64-1.41,1.44Zm2.68-2.39c-1.63.37-2.21-.61-2.65-1.98-.31.52-.52.87-.74,1.25.25.3.49.61.46.57-.54,1.05-.96,1.89-1.5,2.95-.42-.02-1.29-.08-2.15-.13,0-.11-.02-.22-.02-.33h0c.65-.3,1.29-.59,2.03-.92-1.43-.81-2.57-1.45-3.63-2.04.87-.47,1.6-.86,2.33-1.25,1.2-.65.11-1.47-.14-2.26-.08-.24.25-.54.38-.79-.73-.32-1.41-.62-2.31-1.01,1.33-.69,1.83-1.49,1.49-2.4.59-.32,1.19-.64,1.63-.88.74.81,1.46,1.61,2.19,2.41,0-.01.02-.02.02-.02-.09-.39-.22-.79-.22-1.16.01-.18.39-.48.48-.44.28.13.73.58.71.6-.29.36-.63.68-.97,1,.01.02.01.03.01.05l-.04-.02c-.05.07-.09.21-.15.21-1.35.03-1.33,1.03-1.17,1.89.17.88.45,1.8,1.91,1.9,1.17.08,3.14,2.32,3.35,3.53-.47-.27-1.01-.8-1.3-.73Zm2.18.2c.31-.33,1.14-.25,1.73-.35.12.14.24.27.36.41h-.01c-1.25.72-1.01,1.68,0,2.98-1.51-.67-2.63-2.44-2.08-3.04Zm2.69,5.86c-.58-.63-1.16-1.26-1.74-1.89,1.72-.21,1.67.88,2.12,1.61-.13.09-.25.19-.38.28Zm-1.83-10.86c.81-.33,1.2-.5,1.6-.66-.58-.06-1.18-.03-1.75-.2h0c-.43-.13-1.02-.45-1.17-.78-.28-.63-.29-1.33-.48-2.32,1.41.87,2.64-.5,4.19.85-1.59.38-1.56,1.19-.7,2.26.42-.49.84-.98,1.34-1.57.14,1.57.25,2.77.39,4.35-1.09-.61-2.06-1.16-3.42-1.93Zm4.5-8.19h0c-.34-.64-.69-1.28-1.03-1.91.22-.06.43-.13.65-.19.32.64.65,1.27.97,1.9-.2.07-.39.13-.59.2Zm5.37-23.32c-.33-.52-1-1.14-.92-1.52.09-.41.88-.6,1.36-.88h0c.15.74.3,1.47.45,2.2-.29.07-.59.13-.89.2Zm7.16-3.85c.25.1.4.55.59.84-.28.07-.57.24-.86.2-.52-.07-1.09-.18-1.57-.42-.49-.24-.9-.65-1.34-.99.11-.18.22-.37.33-.55.95.3,1.92.55,2.85.92Z"></path>
      <path class="cls-3" d="m29.28,324.1c.41-.05.78-.18.99-.39-.33-.2-.65-.39-.97-.58-.01.32-.02.65-.02.97Z"></path>
      <polygon class="cls-3" points="392.8 155.78 392.79 155.79 392.8 155.79 392.8 155.78"></polygon>
      <path class="cls-3" d="m14.66,298.67c-.01,1.29-.02,2.23-.02,3.39.42-.22.64-.34.86-.45.08-.15.11-.3.15-.44.03-.2.05-.39.07-.59-.03-.61-.36-1.21-1.05-1.92h-.01Z"></path>
      <path class="cls-2" d="m11.3,399.63s0,.02,0,.03c0,0,0,0,0,0,.01.03.02.06.03.1.12.38.26.76.38,1.14.37,1.12.75,2.25,1.14,3.36.05.14.1.28.15.42.46,1.32.93,2.63,1.42,3.94.02.04.03.09.05.13,0,0,0,0,0,0,.09.24.18.48.27.72,0,0,0,0-.01,0,.09.25.2.5.29.75,1.36,3.59,2.81,7.13,4.34,10.64l8.61-2.77c1.49-.48,3.09-.91,4.78-1.3-2.57-5.8-4.89-11.73-6.97-17.77-.03-.02-.04-.05-.07-.07-.12-.35-.23-.71-.35-1.06,0-.02.01-.04.02-.06-.28-.82-.54-1.66-.81-2.48-.79-1.46-1.28-3.02-1.44-4.61-.14-.45-.28-.9-.41-1.36-.22.03-.44.07-.66.1-.13-.74-.26-1.48-.39-2.22.13,0,.3-.03.45-.05-.61-2.16-1.18-4.33-1.72-6.51-.17-.42-.35-.83-.55-1.31.07.02.16.05.24.07-.58-2.42-1.14-4.85-1.64-7.29l-.04-.02s.03-.03.03-.04c-.23-1.13-.43-2.28-.65-3.42-.14-.04-.29-.07-.43-.12-.32-.13-.59-.49-.74-.81-.05-.11.37-.42.57-.63.13.13.24.24.37.36-2.33-12.75-3.56-25.87-3.56-39.27,0-9.03.6-17.94,1.67-26.7-.02,0-.05.02-.07.02-.15.48-.3.96-.53,1.69-1.04-1.27-1.84-2.11-1.45-3.72.38-1.59.21-1.77,1.89-1.65.19.01.39.04.58.06.11-.79.26-1.58.38-2.37-.18-.7-.04-1.49-.3-2.17.24.01.44.07.63.16.46-2.88.98-5.74,1.55-8.58-.28.12-.71.17-.97.26-.13-.82-.19-1.34-.34-1.83-.02-.05-.61-.04-.85.09-1.27.67-1.53.58-2.04-1.01,1.09,1.06,1.69.48,2.18-.41.16-.3.27-.64.4-.96.5.55.99,1.09,1.53,1.69.34-.37.52-.58.7-.78.55-2.57,1.16-5.13,1.81-7.67-.08.03-.16.05-.24.08-.13-.39-.39-.79-.34-1.15.07-.52.38-1,.6-1.53.21.08.39.15.58.23,5.77-21.6,14.76-41.94,26.46-60.51-.49-.79-.48-2.19-1.42-1.09-1.21,1.4-2.38,1.33-3.91,1.02.56.44,1.11.87,1.66,1.3-.15.15-.3.3-.45.45-.86-.91-1.72-1.81-2.64-2.79.54-.34.86-.55,1.19-.76-.82-.23-1.57.03-2.27-.05-.62-.07-1.19-.52-1.79-.8l.21-.36c1.47.11,4.04-1.36,4.58-2.64,1.49.15,1.78.17,1.84-.75-.5-.06-1-.13-1.5-.19.5-.14,1.01-.27,1.51-.4v-.42c0-1.14.22-2.27.35-3.41.54.57.63,1.24,1.02,1.63.73.73.94,1.3.04,1.83.24-.06.48-.13.72-.19.15.28.29.57.44.85-.19.07-.37.14-.56.21.46.16.93.31,1.37.26,1.7-.18,2.73.65,2.29,2.11,3.44-5.2,7.09-10.26,10.95-15.16-1.04-.06-2.21.23-3.29.29-.03-.16-.06-.33-.09-.5,1.15-1.39,2.73-1.41,4.54-1.21.15-.19.31-.37.46-.56-.15-.21-.28-.39-.41-.56.48-.23.87-.38,1.22-.44.31-.39.62-.78.94-1.16-.38.26-.77.52-1.22.82.52-1.38.86-2.3,1.2-3.2.34.27.73.59,1.18.96.99-1.18,2.01-2.33,3.03-3.49-.21-1.06-.07-1.13.55-1.39.1.15.19.29.29.44,5.88-6.64,12.13-12.94,18.76-18.87-.47.06-.94.13-1.75.23.99-.89,2.02-1.56.64-2.69.77.31,1.54.62,2.48.99-.5.23-.79.36-.72.33.01.21.02.39.02.57.63-.56,1.27-1.13,1.92-1.69-.05-.09-.1-.18-.15-.26-.23-.37-.42-.78-.64-1.17v.02h-.01c-.81.92-1.65,1.13-2.45.24-.43.18-.79.34-1.15.49-.05-.13-.11-.26-.16-.39.68-.58,1.37-1.08,2.41-.58.39.19.89.17,1.34.24-.07-.25-.15-.5-.22-.75-.34-.05-.68-.09-1.36-.19,2.2-1.57,4.16-1.76,6.41-1.11-.01.02-.03.04-.04.06,1.58-1.32,3.19-2.62,4.81-3.89-.15-.11-.28-.21-.45-.33.82-.35,1.3-.56,1.82-.78,12.58-9.71,26.22-18.19,40.73-25.21-.05-.1-.1-.19-.16-.25-1.11-1.16-1.08-1.45.53-2.45-.8,1.36-.14,1.86.87,2.13.72-.35,1.45-.66,2.17-1,.23-.41.49-.84.77-1.33-.52.05-.98.1-1.44.14-.03-.1-.07-.19-.1-.29,1.62-.57,3.23-1.15,5.12-1.82-.41-.61-.87-1.3-1.55-2.32.84-.02,1.63-.05,2.42-.04.76.01,1.52.08,2.61.14-.88.45-1.93.64-2.19,1.19-.21.44-.07,1.04.07,1.72,8.67-3.74,17.62-6.98,26.81-9.67.21-.28.51-.52.97-.67.27-.09.43-.85.44-1.31.02-.96.61-1.39,1.75-1.08-.39.64-.76,1.26-1.29,2.12.53.01.95.05,1.32.05.51-.14,1.03-.27,1.54-.41.06-.03.12-.07.18-.1,0,.02.02.03.02.05,1.84-.5,3.69-.97,5.55-1.43.39-2.98,1.08-6.1,2.16-9.36-.46-1.31-.97-2.91-1.46-4.79-51.06,11.52-96.05,38.63-129.32,75.89.31.1.62.25.94.32v.55h-1.71c-3.59,4.05-7.03,8.22-10.33,12.5.11.18.22.37.33.55-.45.26-.89.51-1.34.76-.6.79-1.2,1.59-1.79,2.39.53.12.89.4.59,1.07-.67,1.5-1.72,3.08-3.52,3.59-.12.03-.26.01-.41-.04-3.32,4.72-6.48,9.56-9.46,14.52,0,.01.03.03.03.04-.03.03-.07.05-.1.08C12.08,243.96,0,284.77,0,328.28c0,24.86,3.95,48.85,11.26,71.39.02-.01.03-.03.04-.04Zm18.13,11.78c.07-.24.39-.41.74-.59.43,1.06.87,2.1,1.32,3.15,0,0,0,0,.02.01h-.01s0,0,0-.01c-.55-.43-1.05-.82-1.45-1.23-.36-.36-.73-.96-.61-1.33Zm-14.87-124.6c.29.06.64.05.87.2.54.35,1.04.78,1.63,1.24-1.24.96-2.31.77-2.67-.45-.08-.29.11-.66.17-.99ZM156.14,108.52c1.65,1.21,2.31,2.09,1.99,2.66-1.04-.22-1.99-.42-3.15-.67.41-.71.76-1.3,1.16-1.99Zm-3.6,1.68c.15.06.29.12.44.18-.04.5.09,1.12-.17,1.47-.2.28-.87.2-1.34.28h0c-.09-.17-.17-.34-.26-.5.44-.48.89-.95,1.33-1.43Zm-6.53,7.21c.52,1.18.86,1.93,1.19,2.68-.1.06-.19.13-.29.19-.3-.27-.61-.55-.97-.87-.4.38-.73.69-1.06,1-.15-.06-.3-.12-.45-.18.46-.81.91-1.62,1.58-2.82Zm-5.27-.67c-1.26.19-2.22.34-3.41.52,1.02-1.33,2.16-1.51,3.41-.52Zm-4.02,9.78c.3-.18.76-.08,1.15-.11.01.33.13.69.03.98-.23.67-.57,1.32-.91,2.09h0c-1.42-1.03-1.53-2.23-.27-2.96Zm-1.4-4.67c.16.91.28,1.39.32,1.87.02.22-.05.49-.19.64-.09.1-.47.09-.55,0h0c-.14-.18-.22-.46-.17-.67.11-.49.3-.96.59-1.84Zm-3.62-1.86c.1-.28.77-.37.82-.39-.09.72-.32,1.59-.19,1.65.54.24,1.2.22,1.82.3h-.01c-.06.27-.13.54-.19.81-.74-.23-1.61-.3-2.19-.73-.3-.22-.24-1.13-.06-1.64Zm-1.45,5.49c.54-1.38,1.72-.88,2.81-.88h-.01c-.25,1.42-1.21,1.79-2.37,1.79-.15,0-.52-.68-.43-.91Zm.72,4.48c.35,1.4-1.04,2.41-3.38,2.54.31-2.09,2.22-1.74,3.38-2.54Zm-7.51-.95c1.87-.05,2.02-.28,2.37,1.53.19.99.29,1.99.43,3-1.54.4-3.71-.48-4.47-1.87-.58-.02-1.15-.04-2.02-.07,1.11-1.46,1.79-2.54,3.69-2.59Zm-37.38,31.42c.08.57.16,1.09.23,1.62-.12.04-.25.07-.38.11h-.01c-.46-.36-.93-.71-1.43-1.1.51-.2.95-.37,1.59-.63Zm-11.06,16c-.4.08-.79.16-1.19.24-.05-.08-.09-.16-.14-.24-.09-.16-.18-.33-.27-.49-.27-.49-.54-.98-.81-1.47.81.65,1.61,1.31,2.41,1.96Zm-11.48-4.96c.99.21,1.97.41,2.96.62,0,.04-.02.13-.02.13-1.02-.12-2.03-.25-3.05-.38.03-.12.07-.25.11-.37Zm-3.53,11.91c1.75.27,1.94,1.35,2.17,2.3.06.25-.32.83-.59.9h0c-.83.21-1.76.47-1.76-.05.54-.49,1.08-.98,1.73-1.56-.72-.73-.99-1.01-1.56-1.59Zm-4.12-4.73c.39.36.76.69,1.16,1.05h.01c-.52.21-.93.38-1.4.58.6.47,1.03.8,1.51,1.17-.7.31-1.15.52-1.79.81-.63-1.27-.7-2.46.51-3.61Zm-6.1,10.55c.59.39,1.12.95,1.76,1.15,1.11.34,2.29.47,3.44.69.01,0,.03-.02.03-.02h.03c.37-.95.09-2.24,1.26-2.83.3.56.41,1.08.72,1.28,1.3.84,1.13,1.59-.03,2.33-.33.21-.73.3-1.1.44.11-.38.22-.76.36-1.26-.37,0-.79.03-1.21.04v.03h-.05c-.37.29-.75.58-1.32,1.02.47.99,1.1,2.33,1.74,3.68-1.56-.42-3.12-.84-4.68-1.26-.02,0-.04.02-.04.02h-.02v-.04s.03.01.04.01c.29-.2.58-.39.88-.59-1.97-1.87-2.58-3.59-1.81-4.69Zm.25,5.58c.23,1.1.4,1.86.56,2.64-.16.04-.31.07-.47.11-.4-.5-.8-1-1.32-1.64.32-.29.61-.55,1.23-1.11Zm-.96,4.41c.47.28.93.55,1.39.83-.11.22-.22.43-.33.64-.48-.23-.96-.45-1.41-.73-.03-.02.23-.48.35-.74Zm-6.98,18.96c-.05.25-.09.51-.14.76h0c-1.07.69-1.31-.97-2-1.38.71.21,1.43.41,2.14.62Zm-4.51-8.91c.83.5,1.67.99,2.47,1.54.03.02-.42.68-.61.99h.01c-.9-.76-1.6-1.36-2.3-1.96.14-.19.29-.38.43-.57Zm-11.27,13.09c.54.26,1.01.65,1.5,1-.14.23-.28.46-.43.69-.59-.36-1.19-.72-1.78-1.07.24-.22.6-.67.71-.62Zm-16.37,65.58c.84.07,1.29.08,1.73.16h-.01c.19.02.42.15.52.3.06.1-.03.43-.13.47-.18.08-.45.08-.62-.01-.41-.2-.78-.47-1.49-.92Zm2.95,4.97c-.03.14-.72.29-.9.16h0c-1.1-.78-.38-1.65-.14-2.58,1.2.54,1.31,1.44,1.04,2.42Zm5.4,97.02h0c-.21-.7-.42-1.4-.63-2.1.18-.05.37-.11.56-.16.24.69.49,1.38.73,2.07-.22.06-.44.13-.66.19Zm3.26,26.66c.92-.35,1.18.02,1.36.65-.36.39-.66.83-1.08,1.18-.59.49-1.28.37-1.61-.25-.58-1.08.47-1.25,1.33-1.58Zm-1.42-30.93c-1.07,1.41-2.53.56-4.15,1.01,1.32-1.93,2.94-.36,4.15-1.01Zm-5.05-8.38c.1-.04.46.54.82.98-.8.48-1.38.89-2.02,1.15h0c-.09.03-.5-.72-.76-1.1.65-.36,1.28-.76,1.96-1.03Zm1.65-96.16s-.01-.01-.01-.01v-.02s.02.02.02.02c0,0,0,0,0,.01Zm-4.7-6.62c.18-.64.42-1.26.72-2.17.19.85.12,1.78.55,2.13.48.39,1.41.27,2.39.41.6.38-1.5,1.22-.13,1.55.61.15,1.42-.43,2.37-.76-.21.77-.43,1.49-.59,2.22-.23,1.05-.42,2.12-.63,3.18-.57-.55-1.15-1.1-1.87-1.8-.08.45-.14.85-.21,1.25-.09.01-.19.02-.28.02-.14-1.5-.28-3-.44-4.75-.63.2-1.35.43-2.4.77.18-.71.33-1.38.52-2.05Zm-.93,2.99h0c.03.09.07.18.1.28-.31.19-.62.39-.99.62.24.43.44.78.64,1.13-.09.11-.17.23-.26.34-.61-.57-1.22-1.14-2.13-1.98,1.16-.17,1.9-.28,2.64-.39Zm-7.55,89.86c-.17-.55-.29-.95-.42-1.36.12-.08.24-.17.35-.25.39.47.78.94,1.41,1.71-.78-.06-1.12-.08-1.34-.1Zm3.11-85.17c-.12,1.12-.21,1.96-.32,3.01-.95-1.17-.84-2.18.32-3.01Zm-.5,19.35c.47-.01.94-.03,1.41-.03-.01.3-.03.59-.05.88-.47-.08-.93-.16-1.4-.24.01-.2.03-.41.04-.61Zm.36,8.89c.88.44,1.46.73,2.18,1.08-.73.36-1.2.59-1.78.89-.11-.51-.22-1.05-.4-1.97Zm2.58,73.12v-.02h.04l-.04.02Zm0-.03c-.56.13-1.12.26-1.78.42.39-1.02.76-1.89,2.26-1.56-.18.43-.33.78-.48,1.14Zm-.16-92.61c-.27.2-1.06-.06-1.47-.33h0c-.23-.15-.16-.73-.16-.78.62.24,1.34.64,1.42.54.33-.4.47-.97.68-1.47.22.12.45.23.67.35-.36.58-.62,1.3-1.14,1.69Z"></path>
      <path class="cls-3" d="m142.33,158.55c-.1-.1-.21-.22-.31-.32h-.01c.07.18.14.35.21.52.04-.06.08-.13.11-.2Z"></path>
      <polygon class="cls-3" points="437.75 411.32 437.75 411.33 437.75 411.33 437.75 411.33 437.75 411.33 437.75 411.32"></polygon>
      <path class="cls-1" d="m450.72,294.61c-6.93,3.1-14.03,4.16-19.12,4.48-1.03,1.99-2.45,4.35-4.33,6.91.01.09.02.19.03.28h-.23c-1.98,2.65-4.47,5.52-7.58,8.45.4.47.7,1,1.1,1.38-.36.76-.67,1.41-.98,2.07-.36-.75-.71-1.49-1.07-2.24-.34.96-.68,1.93-1,2.83-.97-.22-1.38-.65-1.38-1.12-.25.21-.49.41-.75.62-.48,5.69-2.4,14.26-9.26,19.61l-6.22,4.87c-.72.7-1.48,1.33-2.28,1.87l-.72.49-5.8,4.54c-.02,3.86-.74,8.61-3.23,13.27l-4.73,8.86c-1.41,12.87-5.63,29.87-15.32,51.63-14.12,31.7-28.29,45.95-44.7,62.46-10.16,10.21-21.61,21.72-35.01,39.56.51,2.03,1.04,4.63,1.39,7.6,87.71-18.21,155.62-88.4,168.03-175.86-.39.21-.79.42-1.23.65-.42-.82-.85-1.65-1.46-2.84.72.42,1.01.6,1.41.83.37-1.7.88-2.49,1.52-2.37.04.32.08.63.12.95.5-3.92.87-7.88,1.15-11.87-.86-.69-1.73-1.38-2.59-2.07.09-.09.19-.18.28-.27.77.71,1.55,1.43,2.32,2.14.21-3.09.35-6.2.42-9.32-.18-.15-.39-.32-.62-.52.2-.13.41-.26.64-.41.03-1.27.09-2.53.09-3.8,0-10.7-.85-21.19-2.45-31.45-.59-.13-1.19-.27-1.77-.45-.95-.28-2.68-.8-4.69-1.77Zm-128.38,208.17c.14-.78.22-1.28.28-1.63.76.07,1.52.14,2.27.21.03.15.07.31.1.46-.87.32-1.74.63-2.65.96Zm9.78,8.7c-.13.05-.27.09-.4.14h.01c-.11-.51-.42-1.09-.27-1.48.18-.45.77-.72,1.18-1.07.04.1.09.2.13.3-.22.71-.43,1.41-.65,2.11Zm12.65-32.27c.1-.15.19-.3.28-.45.48.14,1.32.16,1.38.45.23,1.13.39,2.38-.88,3.21-.42.28-.79.67-1.18,1.02.37.03.74.07,1.11.1.07.15.15.29.22.43-.34.32-.65.78-1.03.93-1.72.69-1.73.67-.88,2.3-.39.13-.78.33-1.18.37-.43.04-.85-.08-1.53-.15.5-.59.85-1,1.17-1.38-1.22-1.19-1.64.31-2.21,1.02-.34-.72-.65-1.36-.95-2-.19.49-.38.98-.59,1.52-.64-.19-1.07-.39-.44-1.3.52-.76.2-1.35-.48-1.65-.39-.17-.81-.27-1.45-.47h0c.33-.76.62-1.42,1.1-2.52-.94.3-1.64.53-2.34.76.14-2.31.15-2.29,1.67-4.16.14-.17-.02-.65-.04-.99,1.32-1.93,2.63-3.85,3.95-5.78.86-.35,1.72-.74,2.6-1.01.26-.08.58.2.87.32-.24.26-.47.71-.72.75-.64.11-1.3.04-2.02.04.72,1.15,1.16,1.82,1.58,2.52.46.78,1.47.95,1.72.22.62-1.82,1.19-.84,1.74-.18.37.45.65.99,1.07,1.65-.85-.3-1.58-.57-1.94-.7-.64.47-1.02.69-1.33,1-.2.2-.46.61-.41.79.34,1.13.75,2.23,1.14,3.34Zm66.19-64.78c1.47,1.62-.67,2.08-.99,3.05-.51-.12-1-.24-1.58-.38-.01-1.32.34-2.53,1.51-3.2h0c.24-.14.79.23,1.06.53Zm-4.28,18.83c-.25-.07-.82-.12-.83-.27-.08-1.16-.06-2.34-.06-3.43.48-.23.88-.41,1.28-.6,0,0,.01-.02.02-.02,0,0,.01.01.01.01-.02,0-.03.02-.04.02.34,1.37,1.65.76,2.66,1.35-1.2.09-2.11.15-3.09.22.01.8.03,1.69.05,2.72Zm-.5-7.81c-.15.84-.83,1-2.02.47.85-.19,1.4-.33,2.02-.47Zm-2.81-2.82c.62-.37,1.24-.75,1.85-1.13.11.48.22.94.39,1.69-.57.74-1.55.67-2.24-.56Zm3.56,4.37c.22-.39.44-.79.66-1.19.21-.37.41-.74.62-1.11.29.3.57.59.86.89,0,0,0,0,0,0-.25.65-.43,1.34-.77,1.93-.31.54-.8.96-1.21,1.42-.69-.51-.58-1.18-.15-1.93Zm2.14-1.41s.01-.03.01-.04v.05s0,0-.01,0Zm-2.95-80.54c.43-.43,1.32-.4,2.01-.57.04.13.08.25.12.38-.57.28-1.14.56-2.01.99,2.07.15,2.2.25,3.04,2.17-.1.35-.2.69-.3,1.04-.88-.7-1.75-1.39-2.62-2.09-.1-.66-.51-1.64-.24-1.92Zm.61,64.2c-.11.43-.22.89-.28,1.15.57.4,1.27.61,1.3.96.08.81-.17,1.7-.29,2.55-.11-.03-.22-.06-.33-.09h.01c-.48-1.51-.95-3.03-1.53-4.9.69.21.92.27,1.12.33Zm-.64,9.44c.45.44.62,1.22.92,1.85.5-.28,1.01-.57,1.7-.97.02,1.77-1.18,2.08-1.81,2.83-.6-.34-1.13-.64-1.65-.93,0,0-.01,0-.02.01v-.02s.03.02.04.02c.57-.29,1.14-.59,1.71-.88-.76-.33-1.52-.66-2.23-.97l-.02-.02c.21-1.27.82-1.46,1.36-.92Zm-2.33-40.96c.4.77.8,1.55,1.32,2.55-.82.07-1.35.12-1.87.16-.16-.4-.32-.8-.48-1.2.34-.5.69-1.01,1.03-1.51Zm-1.72,60.89c.64.51,1.27,1.03,2.03,1.65-.92.08-1.52.14-2.12.19-.08-.47-.17-1.01-.26-1.54.12-.1.23-.2.35-.3Zm-1.66.28c-.03.3-.29.86-.32.86-.45-.13-.87-.33-1.3-.52.34-.22.66-.49,1.02-.61.18-.07.6.17.6.27Zm-27.57-13.65h-.83c.07-.42.15-.85.22-1.27.51-.75,1.03-1.51,1.54-2.26-.31,1.18-.62,2.35-.93,3.53Zm3.61,29.44h0c-.28-.58-.54-1.11-.84-1.73.63-.35,1.25-.7,2.16-1.21-.31.63-.43.88-.6,1.23,1.33.39,1.96.86,1.89,1.42-.92.1-1.82.2-2.61.29Zm2.99-8.32h-.01c-.21-.06-.47-.63-.4-.9.21-.8.45-1.72.83-1.48.12.68.24,1.36.38,2.17.86-.28,1.19-.39,1.88-.62-.99,1.38-1.87,1.06-2.68.83Zm1.32-11.15c-.75.8-1.38,1.74-2.06,2.63h0v.04s-.01.03-.01.03c.54.74,1.62,1.07,1.53,2.33-.55.01-.98-.14-1.27.04-1.21.74-1.69.26-1.71-1.06,0-.37.11-.75.17-1.13.23.26.46.52.77.87.15-.32.33-.68.51-1.05,0-.01-.02-.02-.02-.02.01-.01.02-.03.03-.04-.05-.45-.09-.9-.16-1.58v-.02c-.94-.05-2.23-.1-3.51-.16,1.01-1.14,2.03-2.29,3.04-3.43v-.03h.03s-.03.02-.03.03c.01.34.03.67.04,1.01,2.27-.84,3.82-.6,4.29.55-.55.33-1.2.53-1.64.99Zm3.46-24.59c-.23-.51-.47-1.02-.83-1.81-.06,1.83-.13,1.94-1.6,2.63-.27-.1-.54-.2-.81-.3.51-.75,1.03-1.51,1.54-2.26.51-.08,1.25-.41,1.48-.16.36.39.36,1.18.51,1.8-.09.04-.19.07-.29.1Zm.61,21.51c.18-.01.36-.02.54-.02v2.71c-.2.01-.41.03-.62.04.03-.91.05-1.82.08-2.73Zm1.34,12.51c.07-.54.13-.96.2-1.45-.62.31-1.06.52-1.55.77.08-.74.13-1.22.2-1.89,1.23.03,2.15.5,2.45,2.04-.44.18-.86.35-1.3.53h0Zm1.37,11.46s-.06-.05-.09-.08c.55-.81,1.11-1.62,1.66-2.43.07.09.15.17.22.26-.6.75-1.19,1.5-1.79,2.25Zm1.99-5.2c-.13-.08-.27-.16-.4-.24.4-.75.79-1.51,1.19-2.25.8,1.48-.25,1.82-.79,2.49Zm.4-8.41c.63.25,1.18.47,1.89.76-1.05.82-1.57.6-1.89-.76Zm2.31,13c.04-1,.07-1.68.12-2.74.74.49,1.21.81,1.96,1.31-.81.56-1.39.95-2.08,1.43Zm2.23-7.45c-1.15-.88-1.99-.32-2.87,1.07.11-1.62,1.39-3.28,2.17-2.99.43.16.65.94.96,1.44-.08.16-.17.31-.26.47h0Zm.88,10.02h-.01c-1.08-.29-1.05-.67.02-2.09.23.38.47.79.76,1.29-.36-.01-1.34-.68-.77.8Zm.9-19.27c-.78.46-1.56,1.05-1.13,2.41.34,1.09-1.1,3.68-2.18,4.31.1-.52.41-1.2.24-1.44-.94-1.35-.21-2.23.95-3.12-.61-.09-1.03-.15-1.47-.22-.2.33-.4.66-.38.62-1.2-.1-2.16-.18-3.37-.29-.13-.4-.39-1.2-.65-2,.11-.05.21-.09.31-.14.51.48,1.02.96,1.61,1.51.26-1.59.46-2.86.65-4.03.76.62,1.4,1.14,2.04,1.66,1.06.86,1.46-.43,2.12-.94.21-.16.61.03.9.06.04-.77.08-1.5.13-2.46,1.13.96,2.08,1.12,2.83.49.52.43,1.04.85,1.43,1.17-.51.97-1.02,1.91-1.52,2.86h0s-.02.02-.03.02v-.04c-.08-.02-.23,0-.25-.06h0c-.51-1.21-1.46-.82-2.23-.37Zm6.48,7.34c-.94-1.31-1.71-.98-2.42.18.62.2,1.25.41,1.99.65h.01c-1.45.69-2.56,1.22-4.03,1.92.19-1.21.37-2.28.62-3.8.6.61.9.91,1.2,1.21-.16-.55-.4-1.09-.44-1.66-.03-.43.07-1.09.33-1.34.5-.48,1.17-.74,2.05-1.27-.33,1.59,1.43,2.22.69,4.11Zm7.18,4.63c-.17-.33-.33-.65-.45-.9-.51.07-1.2.41-1.47.17-.98-.86-1.45.02-1.9.75-.32.52-.45,1.17-.76,2.01-.6.1-1.27.22-1.84.32-.02-.88-.03-1.55-.04-2.21h0s-.1.05-.15.07c.18-.79.36-1.58.49-2.13,1.03-.59,2.04-1.18,2.96-1.71.49.31,1.12.71,1.76,1.09.55.33,1.16.57,1.66.97.25.2.4.66.44,1.03.02.12-.45.36-.7.54Zm-1.55-4.54c.48-.54.97-1.08,1.45-1.62.14.17.28.35.42.52-.49.52-.98,1.04-1.47,1.56-.13-.15-.27-.31-.4-.46Zm1.19-10.33c.1-.75.77-1.46,1.17-2.14.09,1.15.17,2.06.27,3.3-.47-.35-1.49-.79-1.44-1.16Zm2.03-7.66c-.28-.04-.8-.07-.8-.13.03-.79.14-1.59.23-2.38.29.02.56.04.85.06-.09.82-.19,1.63-.28,2.45Zm.22-15.32c.17-.27.37-.6.33-.54-.32-.97-.81-1.69-.7-2.34.1-.6.84-1.12,1.3-1.67.32.44.64.87.96,1.31.01-.01.02-.01.02-.01,0,.01.02.03.02.03.4-.53.39-1.81,1.45-1.15.28.18.62.82.52,1.01-.26.51-.75.88-1.18,1.35-.35-.53-.57-.87-.79-1.2-.01,0-.01.02-.01.02-.01-.01-.03-.02-.03-.03-.53.38-1.07.75-1.64,1.15.13.07.39.11.49.28.19.33.46.76.41,1.1-.18,1.06-.92,1.51-1.15.69Zm3.56,13.32h0c-.01.8-.03,1.6-.03,2.4-.19.01-.37.03-.56.04-.02-.79-.05-1.59-.07-2.38.22-.02.44-.04.66-.06Zm-2.9,4.15c1.37-1.26,2.46-.02,4.07-.14-1.75,1.76-2.78-.28-4.07.14Zm2.2,10.09c-.11.02-.27-.68-.47-1.23.86-.33,1.51-.64,2.17-.77.09-.02.25.87.38,1.34-.69.24-1.38.52-2.08.66Zm31.41-127.65c.6.65,1.21,1.31,1.82,1.96l-.5.5c-.63-.64-1.26-1.29-1.89-1.94.19-.18.38-.35.57-.52Zm1.45,9.72c-1.44,1.15-1.04,2.16.3,3.13.2-.8.41-1.59.65-2.54.84,1.9,1.49,3.36,2.34,5.28-1.37-.31-2.59-.58-4.31-.97.67-.75.99-1.13,1.32-1.5-.61.17-1.2.46-1.85.49-.48.02-1.22-.13-1.52-.48-.56-.67-.89-1.54-1.52-2.7,1.8.49,2.43-1.74,4.59-.71Zm3.83,14.46c-1.83-.2-3.75-1.93-3.46-2.92.17-.56,1.04-.8,1.59-1.18l.54.36h0c-.94,1.44-.27,2.55,1.33,3.74Zm-10.2-13.73c-.52.09-1.12.18-1.72.27-.11-.16-.23-.31-.35-.47.56-.79,1.11-1.58,1.77-2.53.13,1.18.21,1.95.3,2.73Zm-1.34-19.06c.29.9.65,1.8.83,2.71.03.14-.74.31-1.36.55-.41-1.12-.78-1.97-.96-2.83-.03-.12.97-.29,1.49-.43Zm-2.87,7.28c-.37.59-.82,1.89-1.24,1.81-.85-.16-1.69-1.05-2.47-1.6,1.3-.08,2.32-.13,3.71-.21Zm-6.86,104.87c.08-1.1.15-2.07.24-3.03.05-.5.06-1.01.22-1.48.26-.78.64-1.02,1.13-.25.25.39.59.69.81.94.06.88.12,1.72.18,2.65-.81.16-1.4,2.03-2.58,1.17Zm.95,4.44c-.65,0-1.08.07-1.46-.04-.12-.03-.17-.79-.12-.81.4-.19.83-.36,1.24-.36.11,0,.18.61.34,1.21Zm1.48-75.78c-.02-.23-.03-.46-.05-.69,1.02.04,2.04.07,3.06.11.03.27.05.54.08.81h0c-1.03-.08-2.06-.15-3.09-.23Zm-3.48-40.94c2.06,2.34-.2,3.58.33,5.26-1.47-1.83-.13-3.18-.33-5.26Zm-4.83,5.8h.01c.92.16,1.85.31,2.78.47-.04.36-.06,1.03-.12,1.03-.9-.08-1.8-.25-2.7-.4.01-.37.03-.73.03-1.1Zm-.15,3.56h.06s-.02.02-.02.02c.74.34,1.54.6,2.21,1.07.62.43,1.11,1.07,1.65,1.63.01,0,.02-.02.02-.02.01,0,.01.05.01.05v-.05s.02.03.02.05c1.53-.38.76-2.11,1.41-3.39.15,1.56.26,2.76.38,4.03h-.01c.9.01,1.9.03,3.06.05-.07.32-.1,1.06-.27,1.06-1.3.05-2.63-.04-3.86-.08-.28-.63-.5-1.15-.73-1.67h-.01s-.03-.02-.03-.03c-.54.88-1.31.71-2.17.12-.45-.31-.91-.61-1.37-.91-.43-.28-.85-.57-1.28-.85.32-.35.65-.71.97-1.06-.01,0-.03-.02-.04-.02Zm4.15,107c-.81.21-1.33.34-1.85.48-.07-.13-.13-.25-.2-.37.51-.48,1.02-.95,1.53-1.43.16.4.32.81.52,1.32Zm-3.52-100.65c-.26-1.1-.43-1.82-.62-2.62.96.23,1.17,1.11.62,2.62Zm-5.03-1.55h-.04s.02-.02.02-.04c0,.01.02.02.02.03.53-.11,1.06-.23,1.9-.42.85.78.81,2.03-.54,2.87-.46-.81-.91-1.63-1.36-2.44Zm1.48,118.01c.29-.41.53-.77.77-1.12.55,0,1.09-.02,1.74-.04-.65,1-1.24,1.85-2.51,1.16Zm.08-77.45c1.34.45,2.68.91,4.02,1.36.01.36.02.71.03,1.07-.48-.12-.95-.23-1.43-.34-.88-.7-1.75-1.39-2.62-2.09Zm3.29,58.61v-.03s.05-.02.07-.02c-.03.02-.07.05-.07.05Zm2.91-2.09c-.15.6-.18.84-.27,1.04-.61,1.3-1.66.69-2.52.98.83-.61,1.69-1.22,2.79-2.02Zm-1.09,23.73h0c-.48-.14-.9-.48-1.35-.73.06-.18.13-.36.19-.54.45.16.91.31,1.36.49.21.09.41.21.61.32-.27.17-.6.52-.81.46Zm1.27-3.74c-.02-.32-.1-.86-.03-.9.56-.27,1.16-.44,1.74-.64l.15.75c-.63.26-1.24.53-1.86.79Zm3.27-5.69c-.57.04-1.13.06-1.69.09v.04l-.02-.04h.02c.18-1.58-.84-1.97-1.95-2.28.05-.12.09-.25.14-.37.24.04.52.02.73.13,1.37.75,1.58.64,1.91-1.06-.01-.02-.03-.05-.03-.05h.04v.05c.31.37.62.75,1.02,1.23.29-.41.58-.83.97-1.41.09.55.14.88.2,1.23.37-.16.63-.27,1.11-.48-.66,1.42-.94,2.82-2.45,2.92Zm1.09-10.13c.27-.57.4-1.06.51-1.06,1.15-.04,1.44-.7,1.09-1.9,1.02,1.6.77,2.11-1.6,2.96Zm5.29-2.23c-.03.18-.66.5-.74.42h-.01c-.54-.53-1.18-1.07-1.47-1.79-.69-1.69-1.2-3.47-1.78-5.22v-.04s.01.03.01.04h1.12c.35,1.03.52,1.97.94,2.72.5.91,1.26,1.63,1.8,2.52.2.33.2.9.13,1.35Zm.17-3.74c-.09.23-.73.27-1.12.3-.09.01-.31-.46-.25-.55.23-.36.54-.68.83-1,.3-.32.61-.63.91-.95,0,0,0,0,0,0h0s-.02-.03-.02-.03h.04l-.02.02c.74.81-.09,1.52-.37,2.2Zm3.39-58.4c-.41,0-.85-.18-1.28-.27.29-.29.57-.58.95-.96-.36-.22-.78-.46-1.2-.71l-.02.02h0s-.03-.03-.05-.04c-.51.04-1.01.07-1.78.13-.01,1.21-.03,2.86-.03,4.51-1.33-1.36-2.67-2.71-4-4.07h-.04v-.04s.03.03.04.04h1.13c-1.04-2.97-.84-4.96.44-5.51.38.73.64,1.57,1.18,2.16.93,1.01,2.02,1.87,3.05,2.78h.04s.02.02.03.02c.81-.66,1.14-2.04,2.56-1.87.03.72-.11,1.27.1,1.65.88,1.59.37,2.19-1.12,2.16Zm1.76-19.33l.02.03c-.07,1.54-.12,2.77-.19,4.33-.43.14-1.33.44-2.22.74-.06-.13-.11-.27-.17-.4.52-.64,1.03-1.28,1.63-2.01-1.81-.4-3.24-.72-4.57-1.01.67-.96,1.23-1.76,1.79-2.56.92-1.32-.54-1.89-1.15-2.77-.19-.28.01-.79.03-1.16-.88-.09-1.7-.17-2.78-.28,1.03-1.43,1.18-2.64.43-3.63.45-.65.91-1.3,1.25-1.79,1.1.71,2.19,1.4,3.28,2.09v-.03c-.26-.45-.58-.89-.74-1.36-.08-.23.17-.78.28-.76.35.05.99.41.99.45-.13.58-.34,1.12-.53,1.67.01.01.02.03.03.05h-.05c0,.11.01.29-.05.32-1.36.61-.88,1.85-.34,2.86.56,1.03,1.26,2.05,2.77,1.56,1.21-.4,4.2,1.57,4.95,2.99-.59-.15-1.37-.58-1.63-.37-1.48,1.15-2.51.17-3.56-1.36-.08.78-.13,1.32-.19,1.88.39.28.72.52.72.52Zm1.4,3.08c.25-.79.48-1.5.77-2.4.98,1.39.75,2.05-.77,2.4Zm1.87,6.65c-.82-.14-1.37-.23-2.13-.35-.02-1.57.48-2.74,2.2-3.06.22.58.43,1.12.65,1.7-.61-.12-1.1-.21-1.65-.32.38.82.64,1.38.94,2.03h-.01Zm2.94,7.05c-.06.28-.7.58-1,.48h0c-.91-.31-1.95-.65-1.7-1.13.76-.12,1.52-.24,2.43-.39-.36-1.12-.5-1.56-.78-2.45,1.6,1.33,1.28,2.46,1.05,3.49Zm4.44-12.32c-.87-.54-1.73-1.09-2.6-1.63,1.64-.99,2.08.39,2.86,1.12-.09.17-.17.34-.26.51Zm2.14-18.4c-.99-.02-1.74-.04-2.49-.05.03.07.05.13.08.2-.9-.27-1.79-.54-2.42-.73-.71-1.35-1.41-2.68-2.05-3.89.32-.62.75-1.41,1.15-2.22.34-.69.59-1.46,1.02-2.09.22-.32.72-.49,1.14-.53.14-.01.42.6.64.93-.36.2-.72.39-.99.54.11.66.52,1.56.26,1.9-.92,1.23.09,1.87.93,2.48.6.44,1.34.64,2.3,1.07.14.78.3,1.65.44,2.39h-.01Zm.08,14.33c.52-.93.86-1.53,1.39-2.47.66,1.07,1.13,1.83,1.7,2.74-1.12-.1-1.9-.16-3.09-.27Zm1.76-37.97c-.66.26-1.32.51-2.39.93.24-.89.34-1.28.41-1.52.71.03,1.23.05,1.75.07.08.17.15.35.23.52Z"></path>
      <path class="cls-2" d="m353.31,118.41c-.87-.05-1.55-.09-2.46-.15.3.62.53,1.1.76,1.57-1.19-.15-2.05-.31-2.76-.72-.49-.28-.94-.86-1.08-1.39-.1-.36.37-.87.62-1.3.22-.39.49-.75.74-1.11h-.02s-.02-.01-.02-.02c.19-.19.38-.37.56-.55-.12-.3-.24-.62-.48-1.23-.29-.13-.58-.27-.88-.41.18.24.32.53.34.94.02.43.28.83.44,1.25-1.19-.24-1.78-.85-1.37-1.95-.37-.28-.69-.51-1-.74l.15-.18c-.21-.09-.42-.2-.63-.29-.06.05-.12.09-.19.13.1.66.18,1.32.24,1.96.14-.18.25-.43.32-.8.1.81.2,1.61.32,2.59-.24-.16-.41-.29-.53-.36.16,2.49.08,4.83-.14,6.98.31-.04.62-.09.92-.13.06.17.13.35.19.52-.4.16-.8.31-1.2.45-.14,1.16-.32,2.25-.53,3.26.53-.05,1.05-.11,1.55-.17-.18-.34-.33-.62-.46-.85.62-.08,1.19-.29,1.67-.18,1.08.24,2.36-1.37,3.17.43.96-.89,1.83-1.68,2.88-2.64.41.98.77,1.8,1.1,2.64.29.75.68.95,1.61.87,1.25-.11,2.54.25,3.81.41,0,.13-.02.27-.02.41-.93.14-1.86.28-3.02.46.7.65,1.2,1.11,1.85,1.71.01-1.49.71-1.38,1.41-.91,1.39-1,2.69-1.93,4.01-2.88.14.14.42.41.81.77.31-.47.54-.83.79-1.2.36.73.66,1.35.97,1.98.14-.05.27-.1.41-.15.05-.54.11-1.09.18-1.71,1.58.39.84,1.56.9,2.31.03.37-.64.86-1.08,1.19-.45.33-1,.54-1.58.84-.21-.75-.49-1.81-.87-3.19-.99.93-1.77,1.67-2.63,2.49-.08-.07-.35-.3-.79-.66.03,1.81-.73,2.91-1.88,3.62,2.97,1.88,6.07,4.41,9.11,7.8,7.05,4.45,13.84,9.27,20.34,14.43.05-.64.33-1.28,1.41-1.28.16,0,.29.04.44.05.02-.02.02-.05.04-.07.25-.26.99-.08,1.51-.1.03.15.06.31.09.46-.04.03-.08.06-.12.09.68.36,1.13.88,1.26,1.51-.46.41-1.15.74-1.24,1.19-.08.38.22.92.55,1.3.62.52,1.23,1.05,1.85,1.57.26.19.5.37.79.6-.03.01-.05.03-.07.03.76.65,1.52,1.32,2.28,1.99.76-.54,1.02-1.45.66-2.61,0,0,0,0,0,0h.01s0,.02,0,.03c.81,0,2.06.05,1.58,1.06-.37.77-.88,1.55-1.54,2.16.59.52,1.17,1.06,1.76,1.59,1.05-2.93,2.77-5.36,5.45-7.06-.07-.68-.22-1.29-.16-1.89.04-.44.37-.85.57-1.28.4.21.94.33,1.18.66h.01c.29.39.44.89.62,1.39.92-.36,1.91-.62,2.94-.78-3.14-2.89-6.34-5.71-9.64-8.42-.09.05-.19.09-.28.14-.13-.23-.27-.46-.41-.69-15.71-12.84-33.12-23.76-51.82-32.47,2.18,1.09,3.22,2.6,3.7,4.7Zm44.79,40.78c-.32-.39-.95-.55-1.64-.93.08-.77-1.39-1.81-.68-3.05.66.8,1.23,1.45,1.76,2.13.29.37.47.81.78,1.15.28.31.65.53.98.79-.46.73-.75.49-1.2-.09Zm1.11-5.99c-.1.11-.2.22-.3.33-.87-.68-1.74-1.35-2.61-2.03.15-.16.29-.31.43-.47.82.72,1.65,1.45,2.48,2.17Zm-3.9-11.12c.21.1.71.22,1.02.52h-.01c.23.23.41.88.27,1.01-.79.74-1.68,1.38-2.6,2.1-.48-1-.78-1.62-1.07-2.21.78-.47,1.51-.9,2.39-1.42Zm-2,8.4c-.2-.12-.42-.26-.55-.34-.48.33-.91.64-1.34.95-.18-.53-.39-1.04-.51-1.58-.16-.71-.3-1.43-.34-2.15-.02-.38.18-.78.31-1.28h0c1.9,1.68,3.12,3.92,2.42,4.4Zm-2.73-7.68h.01c.27.48.54.96.81,1.43-.26.12-.52.24-.89.41-.09-.67-.15-1.16-.21-1.65.09-.06.19-.13.28-.19Zm-15.03-1.56c.54.5,1.1,1,1.82,1.66-1.88-.22-2.2-.57-1.82-1.66Zm-1.66-3.16c.05-.15.09-.31.14-.46.97.17,1.96.29,2.89.57.14.04.02.87.02,1.24h-.01c-1.18-.52-2.11-.94-3.04-1.35Zm15.84,5.32c-1,.43-1.99.87-3.4,1.48.13-.78.05-1.39.32-1.69.82-.9,1.86-.79,3.08.21Zm-3.98-6.5h0c.48.05.97.09,1.45.14v.78c-.51.05-1.01.1-1.52.15.02-.36.05-.71.07-1.07Zm-1.02,3.71s.02.02.03.04c.44-.7,1.01-1.08,1.8-.51.19.14.29.78.15.9-.73.64-1.37.33-1.91-.33-.01-.02-.03-.04-.04-.06-.01.02-.03.03-.04.05-.01-.01-.02-.02-.03-.02-.22.5-.44,1.02-.81,1.89-.84-.98-1.47-1.72-2.1-2.45.12-.14.23-.29.34-.43.97,0,1.77.5,2.58.99,0-.03.02-.06.03-.07Zm-3.15-5.48c.37.81.73,1.62,1.08,2.4-1.65-.79-2.02-1.55-1.08-2.4Zm.87,9.75c-.61-.74-1.12-1.36-1.63-1.98,1.37.37,1.92,1.03,1.63,1.98Zm-9.16-11.73c.7-.92,2.33-.2,2.56-1.76,0-.12,1.16-.17,1.77-.12.32.02.61.34.88.51-.09.31-.16.57-.27.97.3-.16.45-.31.54-.28.56.17,1.34.24,1.59.62h0c.29.44.16,1.18.03,1.75-.02.13-.81.08-1.25.13-.96.11-1.93.23-3.04.36-.02-.06-.09-.28-.18-.58-1.03.98-1.96.9-2.86-.08.09-.63.17-1.17.22-1.52Zm-14.43-11.18c.08-.58.16-1.15.27-1.91.71.53,1.12.83,1.58,1.17-.14.21-.29.43-.44.66.51.02,1.02.03,1.54.04.19-.2.39-.03.44.18h.03c.21.95.44,1.89.52,2.85.02.3-.37.88-.6.9-.48.04-1.08-.1-1.44-.39-.47-.37-.76-.96-.99-1.28.19-.81.35-1.5.51-2.19-.25-.01-.51-.01-.76-.01-.31.35-.63.71-.94,1.06-.14-.1-.27-.19-.4-.29.23-.26.45-.53.68-.79Z"></path>
      <path class="cls-1" d="m73.33,254.82c-1.46-.24-2.52-.42-3.82-.64.17.49.26.75.35,1.01,1.03.74,2.03.59,3.47-.37Z"></path>
      <path class="cls-2" d="m146.41,534.46c-.44-.16-.86-.36-.97-.4.17-.61.24-1.1.45-1.55.14-.3.47-.53.71-.8.23.26.59.5.66.78.19.67.32,1.35.47,2.12.13-.94.27-1.82.42-2.64-5.91-2.66-11.69-5.54-17.31-8.66-.33.19-.63.36-.93.53-.08-.11-.17-.21-.25-.32.15-.26.28-.46.4-.64-4.61-2.57-9.11-5.3-13.51-8.17.02.33.04.65.07.98-.27.04-.53.08-.8.12-.35-.76-.7-1.51-1.05-2.27-8.67-5.77-16.91-12.09-24.67-18.92-1.74-.05-3.48-.07-5.19-.07-3.19,0-6.37.1-9.54.26.55.56,1.1,1.13,1.66,1.69-.1.05-.2.09-.31.14-.5-.61-1.01-1.21-1.52-1.82-1.58.08-3.15.19-4.72.31,1.31,1.29,2.62,2.58,3.95,3.84-.02-.06-.04-.11-.06-.17.92.22,1.56.37,2.53.6-.4.32-.73.59-1.07.86,3.53,3.27,7.13,6.47,10.85,9.54.18,0,.35.01.54.02.06.12.12.23.18.35-.05.03-.11.07-.16.11,1.8,1.47,3.64,2.89,5.48,4.31.71.13,1.42.26,2.08.39.07.45.14.82.2,1.19h0s.01.02.02.02c.67-.5,1.28-.28,1.85.22.3.26.62.52.93.78.13.11.26.22.4.33-.07-.07-.14-.15-.21-.22.93-.01,1.52-.02,2.27-.03-.13.49-.26,1-.49,1.87-.45-.47-.81-.84-1.15-1.2-.28.15-.56.29-.85.44,11.67,8.54,24.13,16.1,37.28,22.53.06,0,.12-.01.18-.02,0,.03-.01.06-.02.1,1.35.66,2.72,1.29,4.08,1.93.33-.43.54-.94.54-1.57-.01-.01-.03-.02-.04-.03,0-.02,0-.04.02-.06-.29-.59-.58-1.18-.83-1.69.33-.21.66-.42,1-.63.18.07.35.13.53.2-.23.71-.47,1.42-.7,2.12,0,.02.02.04.03.06v.03c1.3,1.2,2.96.95,4.55.96h-.02s.02,0,.04,0c-.6-.63-.22-.97.38-1.4.57-.4,1.07-.94,1.36-1.51.48-.94.74-1.97,1.14-2.95.35-.86.23-1.55-.91-1.98Zm-59.16-39.85c.66.2,1.1.33,1.71.52-.37,1.03-1.07,1.72-2.6,1.7-.04-.41-.08-.79-.12-1.2.48.16.87.29,1.3.43-.12-.58-.2-.99-.29-1.45Zm-.06,4.59c-.41.48-.77.91-1.24,1.46-.48-1.04-.12-1.44,1.24-1.46Zm-7.53-2.71c.86.25,1.71.51,2.57.76-.05.14-.11.29-.16.43-.84-.26-1.69-.53-2.53-.79.04-.13.08-.27.12-.4Zm-.23.85c.11-.1.23-.2.34-.3.59.47,1.19.94,1.78,1.41-1.61.42-1.64-.53-2.12-1.11Zm3.29,4.44h0c-.27.35-1.06.39-1.62.56-.12-.1-.24-.21-.37-.31,1.14-.81.85-1.62-.2-2.62,1.48.38,2.67,1.77,2.19,2.37Zm4.9,6.93c-.28-.08-.73-.4-.72-.43.25-.36.56-.67.85-1,.11.33.27.65.29.97,0,.16-.34.48-.42.46Zm3.89-.65h-.01c-.54.36-1.09.72-1.49,1-.76-.61-1.5-1.21-2.24-1.81,0,0,0,0-.01.01,0-.01,0-.02,0-.03h.04c.04-.06.07-.18.13-.19,1.29-.21,1.2-1.09.99-1.82-.21-.75-.55-1.51-1.94-1.39-1.11.09-3.14-1.59-3.42-2.62.46.18,1.01.56,1.28.46,1.53-.55,2.15.23,2.65,1.37.26-.5.43-.84.62-1.2-.25-.23-.5-.47-.48-.44.43-.99.78-1.79,1.22-2.8.4-.04,1.23-.11,2.05-.18.01.09.03.19.04.28-.59.34-1.18.69-1.86,1.08,1.42.51,2.54.91,3.59,1.28-.8.53-1.47.98-2.13,1.42-1.09.74,0,1.31.29,1.96.09.2-.2.51-.31.75.71.17,1.38.34,2.26.56-1.22.79-1.64,1.56-1.26,2.31Zm7.05,7.99c-.75-.28-.71-.88.12-1.79-.05.75-.09,1.25-.12,1.79Zm4.78,3.21h-.01c-1.66-.3-1.61-1.37-2.13-2.04.49-.45.91-.84,1.33-1.22v-.03c-.47,0-.95.01-1.7.02-.52-.62-.18-1.43,1.16-1.79.18.59.36,1.18.54,1.77h.04l-.03.03c.11.54.23,1.07.34,1.61.52-.58,1.05-1.17,1.54-1.71,1.13.41,1.13.95.48,1.31-.54.3-1.32.3-1.99.44.13.48.26.96.43,1.61Zm4.19,2.84c-1.93.95-1.76-.94-2.58-1.39.26-.41.51-.8.8-1.27,1.24.23,2.27.75,2.57,1.86.06.22-.45.62-.8.8h.01Zm4.32,4.62c-.24.21-.94.37-1.09.25-.4-.31-.61-.79-.93-1.24.6-.2.98-.33,1.35-.45l-.02-.02s.02,0,.03-.02h0s.02.03.02.03c0,0-.02,0-.03.01.39.44,1.59.67.67,1.44Zm-.65-1.49c-.2-.52-.4-1.03-.61-1.59-.1.1-.21.31-.4.36-.37.1-.85.26-1.17.14-.95-.35-1.16-1.06-.33-1.1.21.19.46.42.41.38,1-.09,1.81-.38,2.39-.17.53.19.81.91,1.19,1.4-.5.19-1,.38-1.48.58Zm2.37-5.76h0c-.38-.18-.78-.36-1-.45-.53.41-.93.96-1.26.93-.78-.09-1.54-.46-2.31-.71.06-.09.12-.17.18-.26,1.55-.12,3.1-.25,5.01-.4-.38.55-.51.73-.62.89Zm4.36,5.32h0c-.61-.25-1.21-.51-1.82-.76.04-.07.08-.15.12-.22.65-.01,1.31-.02,2.18-.04-.18.39-.33.7-.48,1.02Zm21.01,9.11h-.01c-.39,1.35-1.27,1.65-3.02,1.33-.61-.11-1.29.05-1.94.1-.45.04-.9.12-1.37.19-.07-1.4-.14-2.54-.17-3.68,0-.18.16-.42.34-.52,1.35-.71,2.67-.36,3.59.85.2.26.68.37,1.03.55.31-.86.92-.24,1.14,0,.29.31.51.83.41,1.18Zm5.15-.46c-.33-.29-.64-.57-1.03-.92h-.01c.65-.46,1.23-.87,1.81-1.28.05.09.09.19.14.28-.3.64-.61,1.28-.91,1.92Z"></path>
    </g>
  </g>
</svg>
